<svg id="svg" version="1.1" xmlns="http://www.w3.org/2000/svg" xmlns:xlink="http://www.w3.org/1999/xlink" width="400" height="400" viewBox="0, 0, 400,400"><g id="svgg"><path id="path0" d="M372.170 100.433 C 371.755 100.891,370.873 101.520,370.208 101.831 C 369.544 102.142,368.415 102.757,367.700 103.198 C 364.416 105.224,363.736 105.626,362.800 106.093 C 360.902 107.041,359.085 108.400,359.716 108.400 C 360.061 108.400,360.645 108.098,361.015 107.728 C 361.700 107.043,363.215 106.137,365.451 105.076 C 366.139 104.749,366.825 104.283,366.975 104.041 C 367.125 103.798,367.588 103.600,368.004 103.600 C 368.420 103.600,368.904 103.349,369.080 103.043 C 369.256 102.737,370.075 102.206,370.900 101.863 C 371.725 101.521,372.400 101.046,372.400 100.808 C 372.400 100.569,372.805 100.211,373.300 100.012 C 373.886 99.777,373.977 99.642,373.562 99.625 C 373.211 99.611,372.585 99.975,372.170 100.433 M357.400 109.227 C 356.740 109.650,356.405 109.997,356.656 109.998 C 356.906 109.999,357.536 109.646,358.056 109.213 C 359.245 108.223,358.959 108.229,357.400 109.227 M354.200 111.119 C 353.320 111.721,352.150 112.437,351.600 112.709 L 350.600 113.204 351.600 112.955 C 352.150 112.818,352.870 112.494,353.200 112.235 C 353.530 111.977,354.295 111.518,354.900 111.215 C 355.505 110.912,356.000 110.515,356.000 110.332 C 356.000 109.884,356.018 109.876,354.200 111.119 M347.881 114.791 C 344.286 116.709,342.947 117.597,343.646 117.599 C 344.001 117.599,344.723 117.285,345.251 116.900 C 346.775 115.787,347.707 115.226,349.100 114.587 C 349.815 114.258,350.400 113.902,350.400 113.795 C 350.400 113.474,350.206 113.550,347.881 114.791 M342.196 118.006 C 342.058 118.229,341.373 118.679,340.673 119.005 C 339.973 119.331,338.860 119.959,338.200 120.400 C 337.540 120.841,336.460 121.484,335.800 121.828 C 335.140 122.173,333.880 122.889,333.000 123.420 C 332.120 123.950,330.950 124.611,330.400 124.888 C 328.814 125.688,326.649 127.200,327.090 127.200 C 327.311 127.200,327.921 126.878,328.446 126.484 C 328.971 126.090,329.850 125.547,330.400 125.276 C 330.950 125.006,332.120 124.350,333.000 123.820 C 333.880 123.289,335.140 122.566,335.800 122.213 C 338.783 120.617,339.427 120.230,339.925 119.732 C 340.218 119.439,340.798 119.200,341.214 119.200 C 341.631 119.200,342.165 118.840,342.400 118.400 C 342.833 117.591,342.660 117.256,342.196 118.006 M323.400 129.039 C 322.080 129.817,321.450 130.330,322.000 130.179 C 322.550 130.029,323.270 129.679,323.600 129.403 C 323.930 129.126,324.740 128.615,325.400 128.266 C 326.060 127.917,326.420 127.630,326.200 127.628 C 325.980 127.626,324.720 128.261,323.400 129.039 M318.281 131.991 C 314.686 133.909,313.347 134.797,314.046 134.799 C 314.401 134.799,315.123 134.485,315.651 134.100 C 317.175 132.987,318.107 132.426,319.500 131.787 C 320.215 131.458,320.800 131.102,320.800 130.995 C 320.800 130.674,320.606 130.750,318.281 131.991 M312.596 135.206 C 312.458 135.429,311.773 135.884,311.073 136.217 C 309.160 137.126,308.056 137.807,306.976 138.746 L 306.000 139.595 306.000 200.335 C 306.000 257.683,305.961 261.110,305.300 261.691 C 304.603 262.304,302.194 263.737,297.387 266.400 C 295.997 267.170,294.711 267.951,294.530 268.135 C 294.348 268.320,293.660 268.726,293.000 269.038 C 292.340 269.350,291.080 270.047,290.200 270.587 C 289.320 271.127,288.105 271.773,287.500 272.023 C 286.895 272.274,286.400 272.623,286.400 272.800 C 286.400 272.977,285.905 273.326,285.300 273.577 C 284.695 273.827,283.480 274.468,282.600 275.002 C 281.720 275.536,280.423 276.294,279.718 276.687 C 279.014 277.079,276.611 278.480,274.380 279.800 C 272.148 281.120,269.178 282.831,267.779 283.603 C 266.379 284.374,265.011 285.229,264.737 285.503 C 264.464 285.776,264.019 286.000,263.749 286.000 C 263.478 286.000,263.001 286.257,262.687 286.570 C 262.373 286.884,261.505 287.424,260.758 287.769 C 260.011 288.115,258.860 288.759,258.200 289.200 C 257.540 289.641,256.460 290.284,255.800 290.628 C 255.140 290.973,253.880 291.687,253.000 292.214 C 252.120 292.741,250.823 293.494,250.118 293.887 C 248.994 294.513,242.030 298.611,240.400 299.606 C 240.070 299.807,238.749 300.563,237.464 301.286 C 236.180 302.009,234.470 302.996,233.664 303.479 C 232.859 303.963,231.831 304.530,231.380 304.739 C 230.928 304.949,229.741 305.672,228.742 306.346 C 227.743 307.020,226.492 307.768,225.963 308.007 C 225.433 308.246,224.280 308.875,223.400 309.406 C 222.520 309.936,221.080 310.773,220.200 311.265 C 217.735 312.643,210.303 316.978,204.072 320.673 C 203.262 321.152,202.015 321.818,201.300 322.152 L 200.000 322.759 200.000 361.380 L 200.000 400.000 201.800 400.000 C 202.790 400.000,203.600 399.820,203.600 399.600 C 203.600 399.380,203.945 399.200,204.367 399.200 C 205.629 399.200,206.363 398.770,206.132 398.167 C 205.973 397.753,206.249 397.600,207.157 397.600 C 208.133 397.600,208.400 397.428,208.400 396.800 C 208.400 396.148,208.667 396.000,209.837 396.000 C 210.938 396.000,211.324 395.813,211.484 395.200 C 211.627 394.655,212.030 394.400,212.750 394.400 C 213.374 394.400,214.012 394.072,214.307 393.600 C 214.582 393.160,215.165 392.800,215.603 392.800 C 216.045 392.800,216.400 392.532,216.400 392.200 C 216.400 391.870,216.715 391.573,217.100 391.539 C 217.485 391.506,217.980 391.436,218.200 391.385 C 218.420 391.334,218.825 391.272,219.100 391.246 C 219.375 391.221,219.579 391.065,219.553 390.900 C 219.406 389.973,219.707 389.683,220.700 389.795 C 221.875 389.928,222.934 389.340,222.572 388.755 C 222.451 388.560,222.699 388.400,223.122 388.400 C 223.546 388.400,224.321 388.071,224.846 387.668 C 225.371 387.266,226.115 386.821,226.500 386.681 C 226.885 386.540,227.200 386.149,227.200 385.813 C 227.200 385.431,227.565 385.200,228.167 385.200 C 229.548 385.200,230.400 384.802,230.400 384.157 C 230.400 383.832,230.810 383.600,231.384 383.600 C 231.926 383.600,232.691 383.265,233.084 382.856 C 233.478 382.447,234.282 381.997,234.872 381.856 C 235.462 381.714,236.214 381.329,236.543 380.999 C 236.873 380.670,237.315 380.400,237.525 380.400 C 237.735 380.400,238.001 380.040,238.116 379.600 C 238.255 379.068,238.662 378.800,239.330 378.800 C 240.746 378.800,241.600 378.408,241.600 377.757 C 241.600 377.433,242.009 377.200,242.577 377.200 C 243.115 377.200,243.790 376.869,244.077 376.465 C 244.365 376.060,245.095 375.607,245.700 375.457 C 246.305 375.307,246.800 375.008,246.800 374.792 C 246.800 374.577,247.138 374.400,247.551 374.400 C 248.275 374.400,249.658 373.206,248.949 373.194 C 248.757 373.191,248.869 373.018,249.197 372.811 C 249.525 372.603,250.180 372.530,250.652 372.649 C 251.234 372.795,251.696 372.598,252.091 372.035 C 252.410 371.579,253.237 371.093,253.929 370.954 C 254.621 370.816,255.097 370.557,254.988 370.380 C 254.802 370.080,256.092 369.464,257.000 369.420 C 257.220 369.409,257.400 369.130,257.400 368.800 C 257.400 368.437,257.852 368.148,258.546 368.069 C 259.270 367.986,259.765 367.655,259.892 367.169 C 260.042 366.596,260.448 366.400,261.484 366.400 C 262.538 366.400,262.925 366.206,263.084 365.600 C 263.267 364.899,264.179 364.561,265.334 364.764 C 265.518 364.796,265.764 364.458,265.881 364.011 C 265.998 363.565,266.404 363.200,266.785 363.200 C 267.165 363.200,267.802 362.840,268.200 362.400 C 268.598 361.960,269.325 361.600,269.815 361.600 C 270.370 361.600,270.786 361.298,270.916 360.800 C 271.101 360.090,272.287 359.730,273.700 359.953 C 273.982 359.997,274.154 359.375,274.047 358.700 C 274.021 358.535,274.347 358.400,274.771 358.400 C 275.196 358.400,275.824 358.119,276.167 357.775 C 276.511 357.432,277.181 357.122,277.657 357.086 C 278.133 357.050,278.605 356.701,278.708 356.310 C 278.820 355.881,279.270 355.600,279.847 355.600 C 280.371 355.600,281.142 355.258,281.559 354.841 C 281.977 354.423,282.877 353.959,283.559 353.809 C 284.242 353.659,284.800 353.281,284.800 352.968 C 284.800 352.656,285.162 352.400,285.604 352.400 C 286.046 352.400,286.716 352.040,287.093 351.600 C 287.470 351.160,288.115 350.800,288.526 350.800 C 288.938 350.800,289.369 350.440,289.484 350.000 C 289.643 349.394,290.030 349.200,291.084 349.200 C 292.110 349.200,292.527 349.002,292.672 348.446 C 292.807 347.932,293.369 347.611,294.435 347.441 C 295.442 347.280,296.000 346.978,296.000 346.595 C 296.000 346.267,296.358 346.000,296.800 346.000 C 297.333 346.000,297.600 345.733,297.600 345.200 C 297.600 344.558,297.867 344.400,298.953 344.400 C 299.970 344.400,300.359 344.201,300.516 343.600 C 300.682 342.964,301.062 342.800,302.363 342.800 C 303.551 342.800,304.000 342.636,304.000 342.200 C 304.000 341.870,304.329 341.600,304.730 341.600 C 305.132 341.600,305.871 341.163,306.373 340.629 C 306.875 340.095,307.536 339.754,307.843 339.872 C 308.210 340.013,308.400 339.799,308.400 339.243 C 308.400 338.618,308.650 338.400,309.367 338.400 C 310.725 338.400,311.600 338.005,311.600 337.392 C 311.600 337.095,312.289 336.754,313.200 336.600 C 314.080 336.451,314.800 336.113,314.800 335.848 C 314.800 335.582,315.385 335.191,316.100 334.979 C 316.815 334.766,317.355 334.369,317.300 334.096 C 317.245 333.823,317.558 333.600,317.997 333.600 C 318.435 333.600,319.018 333.240,319.293 332.800 C 319.596 332.315,320.226 332.000,320.893 332.000 C 321.560 332.000,322.190 331.685,322.493 331.200 C 322.768 330.760,323.309 330.400,323.696 330.400 C 324.083 330.400,324.746 330.054,325.170 329.630 C 325.593 329.207,326.358 328.802,326.870 328.730 C 327.936 328.581,328.802 327.941,328.534 327.500 C 328.435 327.335,328.813 327.200,329.376 327.200 C 330.133 327.200,330.400 326.992,330.400 326.400 C 330.400 325.751,330.667 325.600,331.813 325.600 C 332.782 325.600,333.316 325.380,333.513 324.900 C 333.673 324.509,334.279 324.168,334.887 324.126 C 335.533 324.083,336.556 323.471,337.410 322.617 C 338.199 321.827,338.970 321.254,339.123 321.344 C 339.636 321.644,341.200 320.831,341.200 320.264 C 341.200 319.918,341.814 319.604,342.800 319.446 C 343.835 319.281,344.400 318.980,344.400 318.595 C 344.400 318.225,344.783 318.000,345.413 318.000 C 345.969 318.000,346.528 317.731,346.654 317.402 C 346.781 317.074,347.045 316.904,347.242 317.026 C 347.439 317.148,347.600 317.078,347.600 316.870 C 347.600 316.663,347.960 316.399,348.400 316.284 C 348.840 316.169,349.200 315.788,349.200 315.437 C 349.200 314.980,349.582 314.800,350.553 314.800 C 351.570 314.800,351.959 314.601,352.116 314.000 C 352.270 313.411,352.662 313.200,353.600 313.200 C 354.538 313.200,354.930 312.989,355.084 312.400 C 355.243 311.794,355.630 311.600,356.684 311.600 C 357.738 311.600,358.125 311.406,358.284 310.800 C 358.400 310.357,358.830 310.000,359.247 310.000 C 359.733 310.000,360.000 309.717,360.000 309.200 C 360.000 308.551,360.267 308.400,361.413 308.400 C 362.299 308.400,362.911 308.177,363.055 307.800 C 363.182 307.470,363.709 307.200,364.227 307.200 C 364.745 307.200,365.491 306.877,365.884 306.482 C 366.278 306.087,367.095 305.551,367.700 305.290 C 368.305 305.030,368.800 304.633,368.800 304.409 C 368.800 304.184,369.177 304.000,369.637 304.000 C 370.121 304.000,370.558 303.682,370.672 303.248 C 370.809 302.723,371.350 302.432,372.467 302.282 C 375.131 301.924,375.235 299.121,372.603 298.627 C 371.845 298.485,370.956 298.099,370.627 297.770 C 370.298 297.440,369.437 296.895,368.714 296.558 C 367.991 296.221,366.680 295.512,365.800 294.982 C 364.920 294.452,363.833 293.853,363.384 293.651 C 362.935 293.449,362.327 292.995,362.035 292.642 C 361.742 292.289,361.247 292.000,360.935 292.000 C 360.623 292.000,359.880 291.666,359.284 291.257 C 357.592 290.098,355.987 289.141,353.600 287.868 C 352.390 287.223,351.306 286.550,351.192 286.373 C 351.077 286.195,350.537 285.850,349.992 285.604 C 349.446 285.359,348.280 284.722,347.400 284.189 C 346.520 283.655,345.405 283.043,344.922 282.828 C 344.439 282.612,343.169 281.821,342.099 281.070 C 341.030 280.318,339.715 279.565,339.177 279.396 C 338.640 279.228,337.771 278.755,337.246 278.345 C 336.721 277.935,336.135 277.600,335.942 277.600 C 335.749 277.600,334.695 276.970,333.600 276.200 C 332.505 275.430,331.358 274.800,331.053 274.800 C 330.748 274.800,330.265 274.520,329.981 274.177 C 329.696 273.834,328.909 273.293,328.232 272.974 C 326.664 272.235,322.854 270.013,321.591 269.100 C 321.058 268.715,320.465 268.400,320.274 268.400 C 320.083 268.400,319.469 268.040,318.909 267.600 C 318.350 267.160,317.556 266.800,317.146 266.800 C 316.736 266.800,316.400 266.622,316.400 266.405 C 316.400 266.188,315.815 265.737,315.100 265.403 C 314.385 265.068,313.080 264.355,312.200 263.818 C 311.320 263.281,310.150 262.640,309.600 262.394 C 309.050 262.148,308.195 261.567,307.700 261.104 L 306.800 260.261 306.800 200.019 C 306.800 135.826,306.738 138.000,308.561 138.000 C 308.845 138.000,309.493 137.640,310.000 137.200 C 310.507 136.760,311.249 136.400,311.647 136.400 C 312.046 136.400,312.565 136.040,312.800 135.600 C 313.233 134.791,313.060 134.456,312.596 135.206 " stroke="none" fill="#4084cf" fill-rule="evenodd"></path><path id="path1" d="M190.667 3.067 C 190.206 3.527,190.375 4.000,191.000 4.000 C 191.330 4.000,191.600 3.730,191.600 3.400 C 191.600 2.775,191.127 2.606,190.667 3.067 M208.400 3.367 C 208.400 3.715,208.685 4.000,209.033 4.000 C 209.382 4.000,209.595 3.786,209.508 3.525 C 209.261 2.783,208.400 2.660,208.400 3.367 M160.900 19.893 C 160.092 20.173,160.328 21.200,161.200 21.200 C 161.640 21.200,161.997 21.065,161.994 20.900 C 161.981 20.278,161.382 19.726,160.900 19.893 M149.867 26.267 C 149.406 26.727,149.575 27.200,150.200 27.200 C 150.530 27.200,150.800 26.930,150.800 26.600 C 150.800 25.975,150.327 25.806,149.867 26.267 M249.200 26.567 C 249.200 26.915,249.485 27.200,249.833 27.200 C 250.182 27.200,250.395 26.986,250.308 26.725 C 250.061 25.983,249.200 25.860,249.200 26.567 M130.640 37.440 C 130.498 37.811,130.475 38.209,130.591 38.324 C 130.706 38.439,130.800 38.329,130.800 38.079 C 130.800 37.828,131.112 37.726,131.500 37.850 C 131.913 37.983,132.036 37.935,131.800 37.733 C 131.580 37.545,131.287 37.250,131.149 37.078 C 131.012 36.906,130.782 37.069,130.640 37.440 M121.033 43.100 C 120.868 43.265,120.538 43.400,120.300 43.400 C 120.062 43.400,119.795 43.615,119.708 43.877 C 119.616 44.152,119.889 44.329,120.349 44.294 C 120.790 44.261,121.235 43.911,121.338 43.517 C 121.544 42.729,121.485 42.649,121.033 43.100 M278.692 43.630 C 278.805 44.061,279.240 44.400,279.680 44.400 C 280.671 44.400,280.434 43.578,279.325 43.168 C 278.632 42.912,278.525 42.990,278.692 43.630 M109.429 49.829 C 108.613 50.645,108.636 50.800,109.575 50.800 C 110.104 50.800,110.331 50.546,110.290 50.000 C 110.218 49.038,110.219 49.038,109.429 49.829 M289.755 49.828 C 289.890 50.179,290.000 50.541,290.000 50.633 C 290.000 50.725,290.264 50.800,290.587 50.800 C 291.323 50.800,290.969 49.750,290.125 49.426 C 289.685 49.258,289.580 49.371,289.755 49.828 M98.700 56.032 C 97.864 56.519,97.778 57.200,98.553 57.200 C 98.858 57.200,99.201 56.840,99.316 56.400 C 99.431 55.960,99.497 55.605,99.463 55.612 C 99.428 55.619,99.085 55.808,98.700 56.032 M300.800 56.567 C 300.800 56.915,301.085 57.200,301.433 57.200 C 302.140 57.200,302.017 56.339,301.275 56.092 C 301.014 56.005,300.800 56.218,300.800 56.567 M79.700 66.665 C 78.998 66.948,79.075 67.867,79.800 67.867 C 80.130 67.867,80.400 67.537,80.400 67.133 C 80.400 66.730,80.355 66.414,80.300 66.432 C 80.245 66.449,79.975 66.554,79.700 66.665 M319.484 67.200 C 319.599 67.640,319.942 68.000,320.247 68.000 C 321.008 68.000,320.946 66.942,320.167 66.643 C 319.269 66.298,319.252 66.312,319.484 67.200 M68.400 73.600 C 68.037 74.278,68.096 74.400,68.786 74.400 C 69.333 74.400,69.600 74.138,69.600 73.600 C 69.600 73.160,69.426 72.800,69.214 72.800 C 69.002 72.800,68.635 73.160,68.400 73.600 M330.400 73.600 C 330.400 74.138,330.667 74.400,331.214 74.400 C 331.904 74.400,331.963 74.278,331.600 73.600 C 331.365 73.160,330.998 72.800,330.786 72.800 C 330.574 72.800,330.400 73.160,330.400 73.600 M58.100 79.465 C 57.404 79.746,57.473 80.400,58.200 80.400 C 58.530 80.400,58.800 80.130,58.800 79.800 C 58.800 79.470,58.755 79.214,58.700 79.232 C 58.645 79.249,58.375 79.354,58.100 79.465 M38.769 90.167 C 38.753 90.185,38.680 90.503,38.609 90.872 C 38.460 91.643,39.422 91.440,39.731 90.636 C 39.871 90.272,39.043 89.868,38.769 90.167 M360.000 90.264 C 360.000 90.549,361.101 91.600,361.401 91.600 C 361.995 91.600,361.340 90.267,360.700 90.173 C 360.315 90.117,360.000 90.158,360.000 90.264 M28.297 96.450 C 27.914 96.664,27.600 97.011,27.600 97.220 C 27.600 97.863,28.699 97.640,28.967 96.943 C 29.296 96.085,29.146 95.975,28.297 96.450 M371.200 97.000 C 371.200 97.330,371.492 97.600,371.849 97.600 C 372.380 97.600,372.408 97.491,372.000 97.000 C 371.726 96.670,371.434 96.400,371.351 96.400 C 371.268 96.400,371.200 96.670,371.200 97.000 M25.843 100.233 C 25.525 101.060,25.525 300.940,25.843 301.767 C 25.976 302.115,26.336 302.400,26.643 302.400 C 26.949 302.400,27.560 302.760,28.000 303.200 C 28.440 303.640,29.160 304.000,29.600 304.000 C 30.040 304.000,30.400 304.251,30.400 304.557 C 30.400 305.195,31.249 305.600,32.586 305.600 C 33.170 305.600,33.583 305.892,33.716 306.400 C 33.876 307.013,34.262 307.200,35.363 307.200 C 36.374 307.200,36.800 307.378,36.800 307.800 C 36.800 308.130,37.139 308.400,37.553 308.400 C 37.970 308.400,38.400 308.757,38.516 309.200 C 38.676 309.813,39.062 310.000,40.163 310.000 C 41.333 310.000,41.600 310.148,41.600 310.800 C 41.600 311.463,41.867 311.600,43.156 311.600 C 44.392 311.600,44.700 311.744,44.656 312.300 C 44.617 312.786,44.941 313.039,45.714 313.128 C 46.327 313.198,47.045 313.603,47.310 314.028 C 47.575 314.453,48.088 314.800,48.450 314.800 C 48.811 314.800,49.201 315.160,49.316 315.600 C 49.476 316.213,49.862 316.400,50.963 316.400 C 52.133 316.400,52.400 316.548,52.400 317.200 C 52.400 317.867,52.667 318.000,54.000 318.000 C 55.333 318.000,55.600 318.133,55.600 318.800 C 55.600 319.339,55.867 319.600,56.417 319.600 C 56.866 319.600,57.620 319.960,58.092 320.400 C 58.564 320.840,59.277 321.200,59.675 321.200 C 60.074 321.200,60.400 321.462,60.400 321.782 C 60.400 322.130,60.962 322.469,61.800 322.626 C 62.570 322.771,63.200 323.120,63.200 323.402 C 63.200 324.006,64.082 324.400,65.433 324.400 C 66.026 324.400,66.400 324.632,66.400 325.000 C 66.400 325.330,66.717 325.600,67.104 325.600 C 67.491 325.600,68.032 325.960,68.307 326.400 C 68.626 326.910,69.240 327.200,70.003 327.200 C 70.933 327.200,71.200 327.378,71.200 328.000 C 71.200 328.667,71.467 328.800,72.800 328.800 C 74.117 328.800,74.400 328.937,74.400 329.576 C 74.400 330.184,74.725 330.379,75.900 330.476 C 76.911 330.560,77.400 330.795,77.400 331.200 C 77.400 331.530,77.805 331.858,78.300 331.928 C 78.795 331.998,79.200 332.294,79.200 332.585 C 79.200 333.163,80.055 333.600,81.186 333.600 C 81.582 333.600,82.001 333.960,82.116 334.400 C 82.276 335.013,82.662 335.200,83.763 335.200 C 84.933 335.200,85.200 335.348,85.200 336.000 C 85.200 336.622,85.467 336.800,86.397 336.800 C 87.160 336.800,87.774 337.090,88.093 337.600 C 88.368 338.040,88.909 338.400,89.296 338.400 C 89.683 338.400,90.000 338.654,90.000 338.965 C 90.000 339.312,90.616 339.634,91.600 339.800 C 92.511 339.954,93.200 340.295,93.200 340.592 C 93.200 341.172,94.063 341.600,95.233 341.600 C 95.655 341.600,96.000 341.870,96.000 342.200 C 96.000 342.533,96.356 342.800,96.800 342.800 C 97.240 342.800,97.960 343.160,98.400 343.600 C 98.840 344.040,99.539 344.400,99.953 344.400 C 100.370 344.400,100.800 344.757,100.916 345.200 C 101.076 345.813,101.462 346.000,102.563 346.000 C 103.733 346.000,104.000 346.148,104.000 346.800 C 104.000 347.467,104.267 347.600,105.600 347.600 C 106.933 347.600,107.200 347.733,107.200 348.400 C 107.200 348.844,107.467 349.200,107.800 349.200 C 108.130 349.200,108.760 349.560,109.200 350.000 C 109.640 350.440,110.348 350.800,110.773 350.800 C 111.198 350.800,111.660 351.160,111.800 351.600 C 111.987 352.188,112.405 352.400,113.380 352.400 C 114.370 352.400,114.760 352.603,114.916 353.200 C 115.076 353.813,115.462 354.000,116.563 354.000 C 117.733 354.000,118.000 354.148,118.000 354.800 C 118.000 355.318,118.267 355.600,118.757 355.600 C 119.174 355.600,119.614 355.860,119.736 356.178 C 119.858 356.496,120.597 356.876,121.379 357.022 C 122.197 357.176,122.800 357.525,122.800 357.845 C 122.800 358.215,123.278 358.400,124.237 358.400 C 125.338 358.400,125.724 358.587,125.884 359.200 C 126.041 359.801,126.430 360.000,127.447 360.000 C 128.672 360.000,129.004 360.308,128.847 361.300 C 128.821 361.465,129.148 361.600,129.573 361.600 C 129.998 361.600,130.460 361.960,130.600 362.400 C 130.789 362.995,131.205 363.200,132.227 363.200 C 133.333 363.200,133.600 363.355,133.600 364.000 C 133.600 364.667,133.867 364.800,135.200 364.800 C 136.533 364.800,136.800 364.933,136.800 365.600 C 136.800 366.222,137.067 366.400,137.997 366.400 C 138.760 366.400,139.374 366.690,139.693 367.200 C 139.968 367.640,140.488 368.000,140.850 368.000 C 141.211 368.000,141.601 368.360,141.716 368.800 C 141.867 369.378,142.262 369.600,143.136 369.600 C 143.995 369.600,144.420 369.832,144.600 370.400 C 144.787 370.988,145.205 371.200,146.180 371.200 C 147.170 371.200,147.560 371.403,147.716 372.000 C 147.831 372.440,148.212 372.800,148.563 372.800 C 148.913 372.800,149.560 373.160,150.000 373.600 C 150.440 374.040,151.160 374.400,151.600 374.400 C 152.044 374.400,152.400 374.667,152.400 375.000 C 152.400 375.433,152.844 375.600,154.000 375.600 C 155.333 375.600,155.600 375.733,155.600 376.400 C 155.600 377.067,155.867 377.200,157.200 377.200 C 158.533 377.200,158.800 377.333,158.800 378.000 C 158.800 378.533,159.067 378.800,159.600 378.800 C 160.040 378.800,160.400 379.051,160.400 379.357 C 160.400 379.960,161.238 380.400,162.386 380.400 C 162.782 380.400,163.201 380.760,163.316 381.200 C 163.476 381.813,163.862 382.000,164.963 382.000 C 166.133 382.000,166.400 382.148,166.400 382.800 C 166.400 383.467,166.667 383.600,168.000 383.600 C 169.333 383.600,169.600 383.733,169.600 384.400 C 169.600 384.933,169.867 385.200,170.400 385.200 C 170.842 385.200,171.200 385.467,171.200 385.795 C 171.200 386.178,171.758 386.480,172.765 386.641 C 173.831 386.811,174.393 387.132,174.528 387.646 C 174.667 388.180,175.086 388.400,175.963 388.400 C 176.754 388.400,177.200 388.601,177.200 388.957 C 177.200 389.566,178.040 390.000,179.219 390.000 C 179.633 390.000,180.165 390.360,180.400 390.800 C 180.635 391.240,181.073 391.600,181.371 391.600 C 181.670 391.600,182.018 391.870,182.145 392.200 C 182.289 392.577,182.901 392.800,183.787 392.800 C 184.933 392.800,185.200 392.951,185.200 393.600 C 185.200 394.267,185.467 394.400,186.800 394.400 C 188.133 394.400,188.400 394.533,188.400 395.200 C 188.400 395.737,188.667 396.000,189.213 396.000 C 189.659 396.000,190.127 396.265,190.251 396.589 C 190.376 396.913,191.090 397.293,191.839 397.434 C 192.816 397.617,193.200 397.902,193.200 398.445 C 193.200 399.041,193.494 399.200,194.600 399.200 C 195.370 399.200,196.000 399.380,196.000 399.600 C 196.000 399.820,196.900 400.000,198.000 400.000 L 200.000 400.000 200.000 361.862 C 200.000 320.328,200.109 322.400,197.930 322.400 C 197.597 322.400,196.998 322.040,196.600 321.600 C 196.202 321.160,195.566 320.800,195.187 320.800 C 194.808 320.800,194.265 320.520,193.981 320.177 C 193.696 319.834,192.909 319.295,192.232 318.978 C 191.554 318.661,190.460 318.045,189.800 317.610 C 189.140 317.174,187.925 316.524,187.100 316.165 C 186.275 315.807,185.600 315.370,185.600 315.196 C 185.600 315.021,185.105 314.674,184.500 314.423 C 183.895 314.173,182.680 313.527,181.800 312.987 C 180.920 312.447,179.615 311.732,178.900 311.397 C 178.185 311.063,177.600 310.612,177.600 310.395 C 177.600 310.178,177.240 310.000,176.800 310.000 C 176.360 310.000,175.640 309.640,175.200 309.200 C 174.760 308.760,174.154 308.400,173.854 308.400 C 173.554 308.400,172.850 308.040,172.291 307.600 C 171.731 307.160,171.105 306.800,170.899 306.800 C 170.693 306.800,170.198 306.440,169.800 306.000 C 169.402 305.560,168.858 305.200,168.592 305.200 C 168.326 305.200,167.650 304.840,167.091 304.400 C 166.531 303.960,165.846 303.600,165.568 303.600 C 165.290 303.600,164.733 303.301,164.329 302.936 C 163.466 302.154,162.331 301.470,160.400 300.566 C 159.630 300.205,158.910 299.785,158.800 299.632 C 158.690 299.480,158.015 299.118,157.300 298.829 C 156.585 298.540,156.000 298.162,156.000 297.991 C 156.000 297.819,155.505 297.473,154.900 297.222 C 152.702 296.310,150.800 295.185,150.800 294.797 C 150.800 294.579,150.440 294.400,150.000 294.400 C 149.560 294.400,148.840 294.040,148.400 293.600 C 147.960 293.160,147.354 292.800,147.054 292.800 C 146.754 292.800,146.050 292.440,145.491 292.000 C 144.931 291.560,144.358 291.200,144.217 291.200 C 144.076 291.200,142.877 290.480,141.552 289.600 C 140.227 288.720,138.914 288.000,138.634 288.000 C 138.353 288.000,137.798 287.640,137.400 287.200 C 137.002 286.760,136.372 286.400,136.000 286.400 C 135.628 286.400,134.998 286.040,134.600 285.600 C 134.202 285.160,133.707 284.800,133.501 284.800 C 133.295 284.800,132.669 284.440,132.109 284.000 C 131.550 283.560,130.765 283.200,130.366 283.200 C 129.967 283.200,129.496 282.964,129.320 282.677 C 129.144 282.389,128.415 281.917,127.700 281.628 C 126.985 281.339,126.400 280.962,126.400 280.791 C 126.400 280.619,125.905 280.273,125.300 280.022 C 123.102 279.110,121.200 277.985,121.200 277.597 C 121.200 277.379,120.840 277.200,120.400 277.200 C 119.960 277.200,119.240 276.840,118.800 276.400 C 118.360 275.960,117.754 275.600,117.454 275.600 C 117.154 275.600,116.477 275.285,115.949 274.900 C 114.420 273.783,113.491 273.226,112.083 272.579 C 111.358 272.247,110.664 271.710,110.540 271.387 C 110.416 271.064,109.912 270.800,109.419 270.800 C 108.927 270.800,108.198 270.440,107.800 270.000 C 107.402 269.560,106.772 269.200,106.400 269.200 C 106.028 269.200,105.398 268.840,105.000 268.400 C 104.602 267.960,104.056 267.600,103.787 267.600 C 103.518 267.600,103.083 267.342,102.821 267.026 C 102.559 266.710,101.818 266.336,101.175 266.194 C 100.531 266.053,99.869 265.716,99.702 265.445 C 99.536 265.175,98.815 264.717,98.100 264.428 C 97.385 264.139,96.800 263.757,96.800 263.578 C 96.800 263.400,96.395 263.130,95.900 262.980 C 93.397 262.217,93.600 267.764,93.600 200.187 C 93.600 144.388,93.542 138.850,92.957 138.365 C 92.123 137.672,90.938 136.979,89.200 136.168 C 88.430 135.808,87.656 135.263,87.480 134.957 C 87.304 134.651,86.988 134.400,86.777 134.400 C 86.566 134.400,84.768 133.455,82.781 132.300 C 80.794 131.145,78.676 129.930,78.075 129.600 C 76.983 129.001,72.881 126.593,70.082 124.908 C 69.267 124.417,68.150 123.797,67.600 123.531 C 67.050 123.264,66.330 122.830,66.000 122.567 C 65.670 122.305,64.500 121.606,63.400 121.014 C 62.300 120.423,60.590 119.416,59.600 118.776 C 58.610 118.136,57.530 117.491,57.200 117.341 C 55.803 116.708,50.157 113.389,49.671 112.916 C 49.381 112.632,48.884 112.400,48.567 112.400 C 48.251 112.400,47.084 111.762,45.974 110.982 C 44.864 110.202,43.561 109.388,43.078 109.172 C 42.595 108.957,41.480 108.342,40.600 107.805 C 39.720 107.268,38.460 106.568,37.800 106.249 C 37.140 105.931,36.451 105.521,36.269 105.338 C 35.965 105.032,33.566 103.625,29.973 101.645 C 29.189 101.212,28.311 100.575,28.024 100.229 C 27.351 99.418,26.155 99.420,25.843 100.233 M331.083 326.412 C 330.711 326.845,330.564 327.200,330.755 327.200 C 331.195 327.200,332.174 326.041,331.936 325.802 C 331.838 325.704,331.454 325.979,331.083 326.412 M300.800 343.433 C 300.800 343.782,301.014 343.995,301.275 343.908 C 302.017 343.661,302.140 342.800,301.433 342.800 C 301.085 342.800,300.800 343.085,300.800 343.433 M290.162 350.058 C 289.404 350.912,289.405 350.914,290.300 350.444 C 290.795 350.184,291.200 349.798,291.200 349.586 C 291.200 349.018,291.009 349.105,290.162 350.058 M249.200 373.433 C 249.200 373.782,249.414 373.995,249.675 373.908 C 250.417 373.661,250.540 372.800,249.833 372.800 C 249.485 372.800,249.200 373.085,249.200 373.433 M208.400 396.600 C 208.400 396.930,208.651 397.200,208.957 397.200 C 209.264 397.200,209.618 396.930,209.745 396.600 C 209.901 396.192,209.723 396.000,209.187 396.000 C 208.754 396.000,208.400 396.270,208.400 396.600 " stroke="none" fill="#b43854" fill-rule="evenodd"></path><path id="path2" d="M195.933 0.397 C 195.860 0.615,195.305 0.834,194.699 0.884 C 194.050 0.937,193.506 1.267,193.372 1.687 C 193.248 2.079,192.798 2.400,192.373 2.400 C 191.867 2.400,191.600 2.676,191.600 3.200 C 191.600 3.867,191.333 4.000,190.000 4.000 C 188.667 4.000,188.400 4.133,188.400 4.800 C 188.400 5.467,188.133 5.600,186.800 5.600 C 185.467 5.600,185.200 5.733,185.200 6.400 C 185.200 7.148,184.053 7.507,182.600 7.214 C 182.380 7.170,182.326 7.260,182.481 7.414 C 182.862 7.795,181.809 8.800,181.029 8.800 C 180.683 8.800,180.400 9.070,180.400 9.400 C 180.400 9.954,179.711 10.185,178.513 10.033 C 178.244 9.999,177.796 10.337,177.516 10.785 C 177.237 11.233,176.602 11.600,176.107 11.600 C 175.612 11.600,174.982 11.960,174.707 12.400 C 174.432 12.840,173.989 13.200,173.723 13.200 C 172.864 13.200,171.218 14.106,171.436 14.458 C 171.552 14.646,171.187 14.800,170.624 14.800 C 169.867 14.800,169.600 15.008,169.600 15.600 C 169.600 16.267,169.333 16.400,168.000 16.400 C 166.667 16.400,166.400 16.533,166.400 17.200 C 166.400 17.848,166.133 18.000,165.000 18.000 C 163.728 18.000,163.395 18.299,163.553 19.300 C 163.579 19.465,163.138 19.600,162.573 19.600 C 161.728 19.600,161.591 19.742,161.800 20.400 C 162.026 21.110,161.872 21.200,160.427 21.200 C 159.067 21.200,158.800 21.331,158.800 22.000 C 158.800 22.667,158.533 22.800,157.200 22.800 C 155.867 22.800,155.600 22.933,155.600 23.600 C 155.600 24.117,155.317 24.418,154.800 24.450 C 153.668 24.521,153.549 24.564,152.103 25.426 C 151.389 25.852,150.804 26.425,150.803 26.700 C 150.800 27.151,149.781 27.391,148.530 27.237 C 148.272 27.205,147.945 27.544,147.803 27.989 C 147.566 28.738,146.942 28.989,145.713 28.833 C 145.444 28.799,144.996 29.137,144.716 29.585 C 144.437 30.033,143.906 30.400,143.536 30.400 C 142.434 30.400,141.600 30.849,141.600 31.443 C 141.600 31.749,141.240 32.000,140.800 32.000 C 140.267 32.000,140.000 32.267,140.000 32.800 C 140.000 33.467,139.733 33.600,138.400 33.600 C 137.067 33.600,136.800 33.733,136.800 34.400 C 136.800 35.022,136.533 35.200,135.603 35.200 C 134.840 35.200,134.226 35.490,133.907 36.000 C 133.609 36.478,132.974 36.800,132.331 36.800 C 131.605 36.800,131.171 37.061,131.000 37.600 C 130.838 38.111,130.395 38.400,129.773 38.400 C 129.067 38.400,128.800 38.619,128.800 39.200 C 128.800 39.848,128.533 40.000,127.400 40.000 C 126.267 40.000,126.000 40.152,126.000 40.800 C 126.000 41.449,125.733 41.600,124.587 41.600 C 123.701 41.600,123.089 41.823,122.945 42.200 C 122.818 42.530,122.458 42.800,122.144 42.800 C 121.831 42.800,121.436 43.173,121.267 43.630 C 121.099 44.086,120.834 44.446,120.680 44.430 C 119.061 44.258,118.303 44.486,118.116 45.200 C 117.957 45.806,117.570 46.000,116.516 46.000 C 115.462 46.000,115.075 46.194,114.916 46.800 C 114.770 47.358,114.370 47.600,113.596 47.600 C 112.973 47.600,112.384 47.866,112.253 48.206 C 112.125 48.539,111.569 48.984,111.018 49.193 C 110.350 49.447,110.094 49.779,110.250 50.187 C 110.438 50.676,110.154 50.800,108.843 50.800 C 107.467 50.800,107.200 50.930,107.200 51.600 C 107.200 52.267,106.933 52.400,105.600 52.400 C 104.283 52.400,104.000 52.537,104.000 53.176 C 104.000 53.784,103.675 53.979,102.500 54.076 C 101.546 54.155,101.037 54.385,101.103 54.709 C 101.160 54.989,100.755 55.389,100.203 55.599 C 99.651 55.809,99.200 56.255,99.200 56.590 C 99.200 57.035,98.767 57.200,97.600 57.200 C 96.267 57.200,96.000 57.333,96.000 58.000 C 96.000 58.648,95.733 58.800,94.600 58.800 C 93.622 58.800,93.200 58.981,93.200 59.400 C 93.200 59.730,93.020 60.023,92.800 60.050 C 91.047 60.269,89.862 60.867,90.447 61.238 C 90.948 61.555,89.807 61.822,88.700 61.647 C 88.535 61.621,88.400 61.960,88.400 62.400 C 88.400 62.979,88.133 63.200,87.433 63.200 C 86.052 63.200,85.200 63.598,85.200 64.243 C 85.200 64.616,84.725 64.800,83.763 64.800 C 82.662 64.800,82.276 64.987,82.116 65.600 C 82.000 66.043,81.570 66.400,81.153 66.400 C 80.697 66.400,80.400 66.681,80.400 67.115 C 80.400 67.632,80.046 67.857,79.121 67.927 C 77.725 68.034,77.400 68.224,77.400 68.933 C 77.400 69.190,76.795 69.458,76.055 69.529 C 75.129 69.617,74.647 69.898,74.508 70.429 C 74.358 71.004,73.953 71.200,72.916 71.200 C 71.862 71.200,71.475 71.394,71.316 72.000 C 71.200 72.443,70.770 72.800,70.353 72.800 C 69.867 72.800,69.600 73.083,69.600 73.600 C 69.600 74.267,69.333 74.400,68.000 74.400 C 66.698 74.400,66.400 74.541,66.400 75.156 C 66.400 75.571,66.175 75.903,65.900 75.893 C 64.298 75.833,63.183 76.049,63.388 76.380 C 63.677 76.848,62.346 77.600,61.226 77.600 C 60.758 77.600,60.400 77.860,60.400 78.200 C 60.400 78.533,60.044 78.800,59.600 78.800 C 59.067 78.800,58.800 79.067,58.800 79.600 C 58.800 80.267,58.533 80.400,57.200 80.400 C 55.867 80.400,55.600 80.533,55.600 81.200 C 55.600 81.845,55.333 82.000,54.227 82.000 C 53.205 82.000,52.789 82.205,52.600 82.800 C 52.386 83.474,51.767 83.710,50.570 83.574 C 50.443 83.559,50.017 83.919,49.623 84.374 C 49.229 84.828,48.612 85.200,48.253 85.200 C 47.867 85.200,47.600 85.527,47.600 86.000 C 47.600 86.652,47.333 86.800,46.163 86.800 C 45.062 86.800,44.676 86.987,44.516 87.600 C 44.366 88.174,43.970 88.400,43.116 88.400 C 42.262 88.400,41.866 88.626,41.716 89.200 C 41.536 89.888,40.668 90.224,39.514 90.052 C 39.357 90.029,39.344 90.309,39.484 90.674 C 39.679 91.182,39.576 91.276,39.049 91.074 C 38.638 90.916,38.457 90.969,38.603 91.205 C 38.740 91.426,38.396 91.600,37.824 91.600 C 37.223 91.600,36.800 91.827,36.800 92.149 C 36.800 92.480,36.165 92.799,35.200 92.954 C 34.165 93.119,33.600 93.420,33.600 93.805 C 33.600 94.173,33.219 94.400,32.600 94.400 C 32.050 94.400,31.240 94.760,30.800 95.200 C 30.360 95.640,29.832 96.000,29.627 96.000 C 29.422 96.000,29.140 96.360,29.000 96.800 C 28.823 97.358,28.395 97.600,27.587 97.600 C 26.373 97.600,25.573 98.530,25.632 99.874 C 25.650 100.294,25.748 100.389,25.865 100.100 C 26.147 99.401,27.399 99.476,28.024 100.229 C 28.311 100.575,29.189 101.212,29.973 101.645 C 33.566 103.625,35.965 105.032,36.269 105.338 C 36.451 105.521,37.140 105.931,37.800 106.249 C 38.460 106.568,39.720 107.268,40.600 107.805 C 41.480 108.342,42.595 108.957,43.078 109.172 C 43.561 109.388,44.864 110.202,45.974 110.982 C 47.084 111.762,48.251 112.400,48.567 112.400 C 48.884 112.400,49.381 112.632,49.671 112.916 C 50.157 113.389,55.803 116.708,57.200 117.341 C 57.530 117.491,58.610 118.136,59.600 118.776 C 60.590 119.416,62.300 120.423,63.400 121.014 C 64.500 121.606,65.670 122.305,66.000 122.567 C 66.330 122.830,67.050 123.264,67.600 123.531 C 68.150 123.797,69.267 124.417,70.082 124.908 C 72.881 126.593,76.983 129.001,78.075 129.600 C 78.676 129.930,80.794 131.145,82.781 132.300 C 84.768 133.455,86.566 134.400,86.777 134.400 C 86.988 134.400,87.304 134.651,87.480 134.957 C 87.656 135.263,88.430 135.808,89.200 136.168 C 91.142 137.074,92.265 137.754,93.158 138.562 C 93.678 139.033,94.007 139.112,94.194 138.810 C 94.565 138.209,98.022 136.000,101.400 134.205 C 102.060 133.854,103.320 133.132,104.200 132.599 C 105.080 132.067,106.295 131.427,106.900 131.177 C 107.505 130.926,108.000 130.579,108.000 130.404 C 108.000 130.230,108.675 129.790,109.500 129.427 C 110.967 128.781,112.944 127.704,113.781 127.094 C 115.286 125.997,117.297 124.800,117.634 124.800 C 117.853 124.800,118.565 124.440,119.216 124.000 C 121.903 122.184,122.632 121.734,123.270 121.497 C 123.638 121.360,124.718 120.749,125.670 120.139 C 127.727 118.821,128.743 118.238,132.083 116.462 C 133.468 115.726,134.884 114.871,135.231 114.562 C 135.579 114.253,136.061 114.000,136.303 114.000 C 136.545 114.000,136.999 113.743,137.313 113.430 C 137.627 113.116,138.495 112.573,139.242 112.223 C 140.914 111.438,142.932 110.283,143.200 109.956 C 143.310 109.822,144.507 109.102,145.860 108.356 C 148.148 107.095,154.608 103.339,157.950 101.327 C 158.748 100.848,159.940 100.171,160.600 99.825 C 161.260 99.478,162.520 98.758,163.400 98.225 C 164.280 97.691,165.540 96.976,166.200 96.636 C 166.860 96.295,167.760 95.790,168.200 95.513 C 168.640 95.236,169.927 94.425,171.060 93.710 C 172.192 92.996,173.542 92.219,174.060 91.985 C 174.577 91.751,175.659 91.163,176.464 90.679 C 180.449 88.286,182.425 87.200,182.794 87.200 C 183.017 87.200,183.200 87.053,183.200 86.874 C 183.200 86.695,183.785 86.241,184.500 85.866 C 185.215 85.490,186.520 84.749,187.400 84.219 C 188.280 83.689,189.540 82.971,190.200 82.625 C 190.860 82.278,192.120 81.558,193.000 81.025 C 193.880 80.491,195.140 79.768,195.800 79.417 C 196.460 79.066,197.450 78.516,198.000 78.195 C 199.813 77.137,201.307 77.413,204.600 79.413 C 205.480 79.947,206.650 80.611,207.200 80.889 C 207.750 81.167,208.380 81.533,208.600 81.703 C 209.372 82.298,211.810 83.813,212.800 84.312 C 213.350 84.589,214.520 85.241,215.400 85.760 C 216.280 86.279,218.125 87.302,219.500 88.034 C 220.875 88.765,222.000 89.493,222.000 89.651 C 222.000 89.809,222.630 90.146,223.400 90.400 C 224.170 90.654,224.800 91.010,224.800 91.192 C 224.800 91.373,225.295 91.721,225.900 91.966 C 226.505 92.210,227.720 92.851,228.600 93.391 C 229.480 93.930,230.740 94.661,231.400 95.013 C 232.060 95.366,233.255 96.048,234.056 96.527 C 238.756 99.344,239.941 100.000,240.329 100.000 C 240.566 100.000,240.904 100.229,241.080 100.508 C 241.256 100.788,241.850 101.237,242.400 101.506 C 242.950 101.774,243.670 102.170,244.000 102.384 C 244.597 102.772,250.869 106.358,253.316 107.710 C 254.022 108.100,255.140 108.770,255.800 109.197 C 256.460 109.625,257.540 110.257,258.200 110.601 C 258.860 110.946,260.120 111.668,261.000 112.206 C 261.880 112.744,263.050 113.409,263.600 113.683 C 264.150 113.957,265.453 114.771,266.496 115.491 C 267.539 116.211,268.664 116.800,268.996 116.800 C 269.328 116.800,269.960 117.160,270.400 117.600 C 270.840 118.040,271.291 118.400,271.403 118.400 C 271.583 118.400,276.231 121.041,280.329 123.473 C 281.138 123.952,282.340 124.627,283.000 124.972 C 283.660 125.316,284.740 125.953,285.400 126.386 C 286.060 126.820,287.140 127.452,287.800 127.790 C 288.460 128.129,289.720 128.846,290.600 129.384 C 291.480 129.921,292.650 130.595,293.200 130.881 C 293.750 131.166,295.096 131.985,296.191 132.700 C 297.286 133.415,298.398 134.000,298.662 134.000 C 298.927 134.000,299.427 134.284,299.775 134.632 C 300.122 134.979,301.440 135.810,302.703 136.477 C 303.966 137.145,305.326 137.978,305.723 138.329 C 306.305 138.841,306.580 138.871,307.123 138.482 C 307.496 138.216,308.160 137.809,308.600 137.578 C 309.040 137.348,310.062 136.763,310.871 136.279 C 311.680 135.796,314.020 134.449,316.071 133.287 C 318.122 132.125,320.070 131.009,320.400 130.807 C 320.730 130.605,322.778 129.396,324.950 128.120 C 327.123 126.844,329.553 125.407,330.350 124.927 C 331.148 124.448,332.340 123.771,333.000 123.425 C 333.660 123.078,334.920 122.355,335.800 121.818 C 336.680 121.281,337.760 120.643,338.200 120.400 C 338.640 120.157,339.662 119.563,340.471 119.079 C 342.863 117.649,348.951 114.162,349.600 113.850 C 349.930 113.691,350.852 113.165,351.650 112.681 C 352.447 112.196,354.936 110.720,357.182 109.400 C 359.427 108.080,361.925 106.604,362.732 106.121 C 363.539 105.637,364.560 105.055,365.000 104.827 C 365.440 104.600,366.520 103.962,367.400 103.409 C 368.280 102.857,369.450 102.190,370.000 101.927 C 370.550 101.664,371.484 101.010,372.076 100.473 C 372.732 99.878,373.406 99.594,373.802 99.746 C 374.321 99.944,374.427 99.772,374.326 98.898 C 374.217 97.945,374.001 97.784,372.700 97.676 C 371.525 97.579,371.200 97.384,371.200 96.776 C 371.200 96.299,370.926 96.000,370.489 96.000 C 370.098 96.000,369.470 95.640,369.093 95.200 C 368.716 94.760,368.046 94.400,367.604 94.400 C 367.162 94.400,366.440 94.040,366.000 93.600 C 365.560 93.160,364.750 92.800,364.200 92.800 C 363.578 92.800,363.200 92.573,363.200 92.200 C 363.200 91.811,362.810 91.600,362.088 91.600 C 361.435 91.600,360.739 91.270,360.400 90.800 C 360.083 90.360,359.503 90.000,359.112 90.000 C 358.667 90.000,358.400 89.700,358.400 89.200 C 358.400 88.548,358.133 88.400,356.963 88.400 C 355.862 88.400,355.476 88.213,355.316 87.600 C 355.159 86.999,354.770 86.800,353.753 86.800 C 352.667 86.800,352.400 86.642,352.400 86.000 C 352.400 85.408,352.133 85.200,351.376 85.200 C 350.813 85.200,350.451 85.040,350.572 84.845 C 350.693 84.650,350.568 84.306,350.296 84.079 C 349.765 83.639,349.614 83.600,348.447 83.600 C 348.030 83.600,347.600 83.243,347.484 82.800 C 347.324 82.187,346.938 82.000,345.837 82.000 C 344.667 82.000,344.400 81.852,344.400 81.200 C 344.400 80.558,344.133 80.400,343.047 80.400 C 342.030 80.400,341.641 80.201,341.484 79.600 C 341.369 79.160,340.963 78.800,340.582 78.800 C 340.200 78.800,339.688 78.528,339.444 78.195 C 339.200 77.863,338.575 77.509,338.054 77.410 C 337.534 77.310,336.904 76.948,336.654 76.606 C 336.403 76.264,335.614 75.942,334.900 75.892 C 333.965 75.826,333.601 75.604,333.601 75.100 C 333.600 74.550,333.257 74.400,332.000 74.400 C 330.667 74.400,330.400 74.267,330.400 73.600 C 330.400 73.067,330.133 72.800,329.600 72.800 C 328.884 72.800,328.613 72.384,328.753 71.500 C 328.779 71.335,328.080 71.200,327.200 71.200 C 325.867 71.200,325.600 71.067,325.600 70.400 C 325.600 69.758,325.333 69.600,324.247 69.600 C 323.230 69.600,322.841 69.401,322.684 68.800 C 322.524 68.187,322.138 68.000,321.037 68.000 C 319.989 68.000,319.600 67.828,319.600 67.363 C 319.600 67.012,319.257 66.635,318.837 66.526 C 318.417 66.416,317.984 65.983,317.874 65.563 C 317.726 64.997,317.316 64.800,316.284 64.800 C 315.230 64.800,314.843 64.606,314.684 64.000 C 314.524 63.387,314.138 63.200,313.037 63.200 C 311.867 63.200,311.600 63.052,311.600 62.400 C 311.600 61.935,311.333 61.600,310.963 61.600 C 310.613 61.600,309.872 61.242,309.316 60.805 C 308.761 60.368,308.153 60.105,307.966 60.221 C 307.779 60.337,307.397 60.064,307.117 59.616 C 306.774 59.066,306.183 58.800,305.304 58.800 C 304.267 58.800,304.000 58.636,304.000 58.000 C 304.000 57.333,303.733 57.200,302.400 57.200 C 301.067 57.200,300.800 57.067,300.800 56.400 C 300.800 55.800,300.533 55.600,299.733 55.600 C 299.147 55.600,298.785 55.482,298.930 55.337 C 299.416 54.851,298.313 54.000,297.198 54.000 C 296.430 54.000,296.030 53.756,295.884 53.200 C 295.724 52.587,295.338 52.400,294.237 52.400 C 293.067 52.400,292.800 52.252,292.800 51.600 C 292.800 50.955,292.533 50.800,291.427 50.800 C 290.405 50.800,289.989 50.595,289.800 50.000 C 289.660 49.560,289.295 49.200,288.987 49.200 C 288.680 49.200,288.235 48.840,288.000 48.400 C 287.726 47.887,287.162 47.600,286.433 47.600 C 285.630 47.600,285.232 47.364,285.084 46.800 C 284.925 46.194,284.538 46.000,283.484 46.000 C 282.430 46.000,282.043 45.806,281.884 45.200 C 281.725 44.594,281.338 44.400,280.284 44.400 C 279.229 44.400,278.843 44.207,278.684 43.598 C 278.544 43.064,278.262 42.878,277.837 43.041 C 277.379 43.217,277.200 43.049,277.200 42.443 C 277.200 41.752,276.956 41.600,275.847 41.600 C 274.830 41.600,274.441 41.401,274.284 40.800 C 274.124 40.187,273.738 40.000,272.637 40.000 C 271.467 40.000,271.200 39.852,271.200 39.200 C 271.200 38.606,270.933 38.400,270.163 38.400 C 269.462 38.400,269.057 38.141,268.916 37.600 C 268.770 37.043,268.370 36.800,267.600 36.800 C 266.830 36.800,266.430 36.557,266.284 36.000 C 266.124 35.387,265.738 35.200,264.637 35.200 C 263.467 35.200,263.200 35.052,263.200 34.400 C 263.200 33.733,262.933 33.600,261.600 33.600 C 260.267 33.600,260.000 33.467,260.000 32.800 C 260.000 32.274,259.733 32.000,259.223 32.000 C 258.795 32.000,258.210 31.685,257.923 31.300 C 257.635 30.915,257.040 30.543,256.600 30.472 C 256.160 30.402,255.567 30.042,255.281 29.672 C 254.780 29.023,254.580 28.946,253.127 28.846 C 252.757 28.821,252.340 28.440,252.200 28.000 C 252.011 27.405,251.595 27.200,250.573 27.200 C 249.627 27.200,249.200 27.016,249.200 26.608 C 249.200 26.282,248.751 25.903,248.203 25.765 C 247.654 25.627,247.293 25.373,247.400 25.199 C 247.647 24.801,246.628 24.400,245.367 24.400 C 244.667 24.400,244.400 24.179,244.400 23.600 C 244.400 22.958,244.133 22.800,243.047 22.800 C 242.030 22.800,241.641 22.601,241.484 22.000 C 241.341 21.454,240.938 21.200,240.214 21.200 C 239.608 21.200,239.259 21.028,239.400 20.800 C 239.536 20.580,239.367 20.400,239.024 20.400 C 238.681 20.400,238.400 20.220,238.400 20.000 C 238.400 19.780,238.052 19.600,237.627 19.600 C 237.202 19.600,236.740 19.240,236.600 18.800 C 236.411 18.205,235.995 18.000,234.973 18.000 C 233.867 18.000,233.600 17.845,233.600 17.200 C 233.600 16.533,233.333 16.400,232.000 16.400 C 230.667 16.400,230.400 16.267,230.400 15.600 C 230.400 15.089,230.133 14.800,229.661 14.800 C 229.255 14.800,228.507 14.440,228.000 14.000 C 227.493 13.560,226.766 13.200,226.385 13.200 C 226.005 13.200,225.599 12.840,225.484 12.400 C 225.323 11.784,224.938 11.600,223.814 11.600 C 223.010 11.600,222.451 11.440,222.572 11.245 C 222.814 10.854,221.883 9.936,221.342 10.033 C 220.361 10.209,219.600 9.933,219.600 9.400 C 219.600 9.070,219.252 8.800,218.827 8.800 C 218.402 8.800,217.941 8.444,217.803 8.008 C 217.664 7.573,217.427 7.234,217.276 7.255 C 215.920 7.448,214.867 7.101,214.684 6.400 C 214.524 5.787,214.138 5.600,213.037 5.600 C 211.867 5.600,211.600 5.452,211.600 4.800 C 211.600 4.133,211.333 4.000,210.000 4.000 C 208.667 4.000,208.400 3.867,208.400 3.200 C 208.400 2.667,208.133 2.400,207.600 2.400 C 207.160 2.400,206.800 2.149,206.800 1.843 C 206.800 1.231,205.959 0.800,204.767 0.800 C 204.345 0.800,204.000 0.620,204.000 0.400 C 204.000 -0.131,196.112 -0.134,195.933 0.397 " stroke="none" fill="#afc450" fill-rule="evenodd"></path><path id="path3" d="M198.400 78.980 C 197.850 79.307,196.905 79.778,196.300 80.027 C 195.695 80.275,195.200 80.619,195.200 80.791 C 195.200 80.962,194.615 81.339,193.900 81.628 C 193.185 81.917,192.456 82.389,192.280 82.677 C 192.104 82.964,191.637 83.200,191.241 83.200 C 190.846 83.200,190.107 83.560,189.600 84.000 C 189.093 84.440,188.463 84.800,188.201 84.800 C 187.939 84.800,187.398 85.160,187.000 85.600 C 186.602 86.040,186.047 86.400,185.767 86.400 C 185.486 86.400,185.011 86.646,184.710 86.947 C 184.409 87.248,183.721 87.631,183.181 87.797 C 182.642 87.963,181.878 88.437,181.484 88.850 C 181.091 89.262,180.425 89.600,180.004 89.600 C 179.584 89.600,179.096 89.840,178.920 90.132 C 178.744 90.425,178.060 90.932,177.400 91.259 C 175.696 92.102,174.354 92.891,173.249 93.700 C 172.723 94.085,171.956 94.400,171.546 94.400 C 171.136 94.400,170.800 94.579,170.800 94.797 C 170.800 95.185,168.898 96.310,166.700 97.222 C 166.095 97.473,165.600 97.829,165.600 98.013 C 165.600 98.197,164.970 98.576,164.200 98.854 C 163.430 99.133,162.800 99.491,162.800 99.649 C 162.800 99.808,162.170 100.146,161.400 100.400 C 160.630 100.654,160.000 101.026,160.000 101.226 C 160.000 101.426,159.392 101.843,158.649 102.154 C 157.906 102.464,157.175 102.917,157.025 103.159 C 156.875 103.402,156.431 103.600,156.038 103.600 C 155.645 103.600,154.998 103.960,154.600 104.400 C 154.202 104.840,153.584 105.200,153.227 105.200 C 152.870 105.200,152.270 105.560,151.893 106.000 C 151.516 106.440,150.964 106.800,150.665 106.800 C 150.367 106.800,149.707 107.160,149.200 107.600 C 148.693 108.040,147.945 108.400,147.539 108.400 C 147.132 108.400,146.800 108.550,146.800 108.732 C 146.800 108.915,146.305 109.315,145.700 109.622 C 145.095 109.928,144.171 110.499,143.646 110.889 C 143.121 111.280,142.356 111.600,141.946 111.600 C 141.536 111.600,141.200 111.778,141.200 111.995 C 141.200 112.212,140.615 112.668,139.900 113.009 C 137.695 114.060,136.230 114.913,135.675 115.468 C 135.383 115.760,134.707 116.109,134.172 116.243 C 133.637 116.377,133.200 116.630,133.200 116.804 C 133.200 116.979,132.664 117.309,132.009 117.537 C 131.353 117.765,130.588 118.146,130.309 118.382 C 129.152 119.358,126.729 120.800,126.244 120.800 C 125.958 120.800,125.398 121.160,125.000 121.600 C 124.602 122.040,123.972 122.400,123.600 122.400 C 123.228 122.400,122.598 122.760,122.200 123.200 C 121.802 123.640,121.258 124.000,120.992 124.000 C 120.726 124.000,120.050 124.360,119.491 124.800 C 118.931 125.240,118.277 125.600,118.037 125.600 C 117.797 125.600,117.240 125.960,116.800 126.400 C 116.360 126.840,115.730 127.200,115.400 127.200 C 115.070 127.200,114.440 127.560,114.000 128.000 C 113.560 128.440,112.840 128.800,112.400 128.800 C 111.960 128.800,111.600 128.978,111.600 129.195 C 111.600 129.412,111.015 129.865,110.300 130.202 C 108.532 131.035,106.741 132.096,106.086 132.700 C 105.787 132.975,105.284 133.200,104.968 133.200 C 104.651 133.200,104.084 133.560,103.707 134.000 C 103.330 134.440,102.700 134.800,102.307 134.800 C 101.914 134.800,101.284 135.160,100.907 135.600 C 100.530 136.040,99.976 136.400,99.674 136.400 C 99.373 136.400,98.669 136.760,98.109 137.200 C 97.550 137.640,96.891 138.006,96.646 138.013 C 96.401 138.021,95.795 138.364,95.300 138.777 L 94.400 139.528 94.400 199.964 C 94.400 257.622,94.433 260.432,95.120 261.100 C 95.515 261.485,96.862 262.307,98.113 262.927 C 99.363 263.547,100.491 264.224,100.620 264.433 C 100.749 264.641,101.427 265.081,102.127 265.409 C 102.827 265.737,104.120 266.445,105.000 266.982 C 105.880 267.519,106.960 268.157,107.400 268.400 C 107.840 268.643,108.920 269.283,109.800 269.823 C 110.680 270.363,112.075 271.101,112.900 271.463 C 113.725 271.825,114.400 272.256,114.400 272.422 C 114.400 272.587,114.895 272.926,115.500 273.177 C 116.105 273.427,117.320 274.073,118.200 274.613 C 119.080 275.153,120.385 275.868,121.100 276.203 C 121.815 276.537,122.400 276.974,122.400 277.174 C 122.400 277.373,122.952 277.658,123.627 277.806 C 124.302 277.954,124.951 278.328,125.070 278.638 C 125.188 278.947,125.616 279.200,126.019 279.200 C 126.423 279.200,126.866 279.383,127.004 279.606 C 127.141 279.829,127.917 280.376,128.727 280.821 C 129.537 281.266,130.920 282.061,131.800 282.587 C 132.680 283.114,133.940 283.827,134.600 284.172 C 135.260 284.516,136.340 285.159,137.000 285.600 C 137.660 286.041,138.811 286.685,139.558 287.031 C 140.305 287.376,141.173 287.916,141.487 288.230 C 141.801 288.543,142.301 288.800,142.600 288.800 C 142.899 288.800,143.382 289.039,143.675 289.332 C 144.230 289.887,145.695 290.740,147.900 291.791 C 148.615 292.132,149.200 292.574,149.200 292.774 C 149.200 292.973,149.739 293.255,150.398 293.399 C 151.056 293.544,151.731 293.873,151.898 294.131 C 152.064 294.389,153.190 295.106,154.400 295.725 C 155.610 296.344,157.410 297.372,158.400 298.010 C 159.390 298.648,160.740 299.448,161.400 299.788 C 162.060 300.128,163.320 300.845,164.200 301.382 C 165.080 301.919,166.188 302.537,166.661 302.755 C 167.135 302.972,167.632 303.328,167.766 303.545 C 167.900 303.761,168.559 304.059,169.232 304.207 C 169.904 304.355,170.548 304.720,170.662 305.018 C 170.777 305.317,171.485 305.764,172.235 306.012 C 172.986 306.259,173.600 306.610,173.600 306.792 C 173.600 306.973,174.095 307.327,174.700 307.578 C 176.837 308.465,178.800 309.611,178.800 309.971 C 178.800 310.172,179.352 310.458,180.027 310.606 C 180.702 310.754,181.347 311.117,181.460 311.413 C 181.574 311.709,182.179 312.064,182.806 312.201 C 183.432 312.339,184.159 312.710,184.421 313.026 C 184.683 313.342,185.063 313.600,185.265 313.600 C 185.467 313.600,186.165 313.960,186.816 314.400 C 187.467 314.840,188.533 315.560,189.184 316.000 C 189.835 316.440,190.623 316.800,190.935 316.800 C 191.247 316.800,191.735 317.080,192.019 317.423 C 192.304 317.766,193.091 318.305,193.768 318.622 C 194.446 318.939,195.540 319.556,196.200 319.993 C 197.937 321.144,199.261 321.662,199.869 321.429 C 200.307 321.261,200.400 310.632,200.400 260.675 C 200.400 193.675,200.166 199.730,202.800 198.480 C 203.350 198.219,204.070 197.831,204.400 197.617 C 204.730 197.403,206.051 196.637,207.336 195.914 C 208.620 195.191,210.330 194.216,211.136 193.747 C 211.941 193.277,213.590 192.379,214.800 191.751 C 216.010 191.122,217.136 190.396,217.302 190.135 C 217.469 189.875,218.131 189.547,218.775 189.406 C 219.418 189.264,220.156 188.895,220.413 188.584 C 220.671 188.273,221.843 187.565,223.018 187.009 C 224.193 186.453,225.276 185.800,225.426 185.558 C 225.575 185.316,226.261 184.862,226.949 184.550 C 228.384 183.897,232.125 181.836,233.600 180.886 C 234.150 180.531,235.590 179.717,236.800 179.075 C 238.010 178.434,239.284 177.660,239.631 177.355 C 239.979 177.050,240.461 176.800,240.703 176.800 C 240.945 176.800,241.399 176.543,241.713 176.230 C 242.027 175.916,242.895 175.376,243.642 175.031 C 244.389 174.685,245.540 174.044,246.200 173.607 C 247.554 172.710,249.068 172.000,249.626 172.000 C 249.832 172.000,250.000 171.822,250.000 171.605 C 250.000 171.388,250.585 170.937,251.300 170.603 C 252.015 170.268,253.320 169.554,254.200 169.016 C 255.080 168.478,256.070 167.909,256.400 167.751 C 256.974 167.476,259.615 165.972,262.736 164.141 C 263.541 163.669,264.960 162.890,265.889 162.411 C 266.817 161.932,268.194 161.121,268.947 160.610 C 269.701 160.098,270.696 159.560,271.159 159.413 C 271.621 159.266,272.000 158.993,272.000 158.805 C 272.000 158.617,272.528 158.348,273.172 158.206 C 273.817 158.064,274.575 157.671,274.856 157.333 C 275.137 156.994,275.735 156.556,276.184 156.359 C 276.633 156.163,277.270 155.828,277.600 155.615 C 277.930 155.402,279.251 154.637,280.536 153.914 C 281.820 153.191,283.530 152.201,284.336 151.714 C 285.141 151.227,286.340 150.545,287.000 150.198 C 287.660 149.851,288.920 149.131,289.800 148.598 C 290.680 148.065,291.940 147.345,292.600 146.998 C 293.260 146.651,294.520 145.934,295.400 145.404 C 296.280 144.875,297.360 144.243,297.800 144.000 C 298.240 143.757,299.320 143.125,300.200 142.596 C 301.080 142.066,302.363 141.374,303.051 141.057 C 305.230 140.055,305.230 138.803,303.051 137.786 C 302.363 137.465,301.260 136.841,300.600 136.400 C 299.940 135.959,298.846 135.339,298.168 135.022 C 297.491 134.705,296.704 134.166,296.419 133.823 C 296.135 133.480,295.577 133.200,295.180 133.200 C 294.782 133.200,294.218 132.961,293.925 132.668 C 293.370 132.113,291.905 131.260,289.700 130.209 C 288.985 129.868,288.400 129.426,288.400 129.226 C 288.400 129.027,287.848 128.742,287.173 128.594 C 286.498 128.446,285.855 128.088,285.744 127.798 C 285.633 127.509,285.118 127.166,284.599 127.035 C 284.080 126.905,283.418 126.572,283.128 126.295 C 282.838 126.017,282.150 125.558,281.600 125.274 C 278.137 123.487,277.600 123.154,277.600 122.797 C 277.600 122.579,277.264 122.400,276.854 122.400 C 276.444 122.400,275.679 122.078,275.154 121.684 C 274.629 121.290,273.750 120.748,273.200 120.480 C 272.650 120.211,271.660 119.633,271.000 119.195 C 270.340 118.757,269.189 118.115,268.442 117.769 C 267.695 117.424,266.827 116.884,266.513 116.570 C 266.199 116.257,265.713 116.000,265.433 116.000 C 265.152 116.000,264.507 115.640,264.000 115.200 C 263.493 114.760,262.854 114.400,262.582 114.400 C 262.309 114.400,261.988 114.147,261.870 113.838 C 261.751 113.528,261.090 113.151,260.400 113.000 C 259.710 112.849,259.053 112.483,258.940 112.187 C 258.826 111.891,258.196 111.531,257.540 111.387 C 256.883 111.243,256.249 110.872,256.130 110.562 C 256.012 110.253,255.688 110.000,255.411 110.000 C 255.134 110.000,254.450 109.640,253.891 109.200 C 253.331 108.760,252.615 108.400,252.299 108.400 C 251.983 108.400,251.398 108.040,251.000 107.600 C 250.602 107.160,249.945 106.800,249.541 106.800 C 249.137 106.800,248.582 106.440,248.307 106.000 C 248.032 105.560,247.531 105.200,247.193 105.200 C 246.855 105.200,246.133 104.887,245.589 104.503 C 244.264 103.570,242.442 102.547,241.100 101.984 C 240.495 101.730,240.000 101.373,240.000 101.192 C 240.000 101.010,239.370 100.654,238.600 100.400 C 237.830 100.146,237.200 99.786,237.200 99.600 C 237.200 99.414,236.570 99.054,235.800 98.800 C 235.030 98.546,234.400 98.190,234.400 98.008 C 234.400 97.827,233.860 97.490,233.200 97.260 C 232.540 97.030,232.000 96.652,232.000 96.421 C 232.000 96.189,231.640 96.000,231.200 96.000 C 230.760 96.000,230.045 95.645,229.610 95.210 C 229.176 94.776,228.363 94.306,227.805 94.166 C 227.247 94.025,226.657 93.704,226.495 93.451 C 226.333 93.198,225.161 92.475,223.891 91.844 C 222.622 91.213,221.484 90.537,221.364 90.342 C 221.244 90.147,220.573 89.724,219.873 89.402 C 218.559 88.797,217.777 88.346,215.916 87.116 C 215.320 86.722,214.583 86.400,214.278 86.400 C 213.973 86.400,213.413 86.056,213.033 85.636 C 212.652 85.216,211.904 84.762,211.371 84.628 C 210.837 84.494,210.400 84.222,210.400 84.023 C 210.400 83.825,209.770 83.454,209.000 83.200 C 208.230 82.946,207.600 82.590,207.600 82.408 C 207.600 82.227,207.105 81.870,206.500 81.616 C 204.806 80.905,202.697 79.680,202.434 79.255 C 201.985 78.529,199.448 78.355,198.400 78.980 " stroke="none" fill="#eceeeb" fill-rule="evenodd"></path><path id="path4" d="M304.623 139.885 C 304.506 140.188,303.824 140.705,303.106 141.034 C 302.388 141.363,301.080 142.066,300.200 142.596 C 299.320 143.125,298.240 143.757,297.800 144.000 C 297.360 144.243,296.280 144.875,295.400 145.404 C 294.520 145.934,293.260 146.651,292.600 146.998 C 291.940 147.345,290.680 148.065,289.800 148.598 C 288.920 149.131,287.660 149.851,287.000 150.198 C 286.340 150.545,285.141 151.227,284.336 151.714 C 283.530 152.201,281.820 153.191,280.536 153.914 C 279.251 154.637,277.930 155.402,277.600 155.615 C 277.270 155.828,276.633 156.163,276.184 156.359 C 275.735 156.556,275.137 156.994,274.856 157.333 C 274.575 157.671,273.817 158.064,273.172 158.206 C 272.528 158.348,272.000 158.617,272.000 158.805 C 272.000 158.993,271.621 159.266,271.159 159.413 C 270.696 159.560,269.701 160.098,268.947 160.610 C 268.194 161.121,266.817 161.932,265.889 162.411 C 264.960 162.890,263.541 163.669,262.736 164.141 C 259.615 165.972,256.974 167.476,256.400 167.751 C 256.070 167.909,255.080 168.478,254.200 169.016 C 253.320 169.554,252.015 170.268,251.300 170.603 C 250.585 170.937,250.000 171.388,250.000 171.605 C 250.000 171.822,249.832 172.000,249.626 172.000 C 249.068 172.000,247.554 172.710,246.200 173.607 C 245.540 174.044,244.389 174.685,243.642 175.031 C 242.895 175.376,242.027 175.916,241.713 176.230 C 241.399 176.543,240.945 176.800,240.703 176.800 C 240.461 176.800,239.979 177.050,239.631 177.355 C 239.284 177.660,238.010 178.434,236.800 179.075 C 235.590 179.717,234.150 180.531,233.600 180.886 C 232.125 181.836,228.384 183.897,226.949 184.550 C 226.261 184.862,225.575 185.316,225.426 185.558 C 225.276 185.800,224.193 186.453,223.018 187.009 C 221.843 187.565,220.671 188.273,220.413 188.584 C 220.156 188.895,219.418 189.264,218.775 189.406 C 218.131 189.547,217.469 189.875,217.302 190.135 C 217.136 190.396,216.010 191.122,214.800 191.751 C 213.590 192.379,211.941 193.277,211.136 193.747 C 210.330 194.216,208.620 195.191,207.336 195.914 C 206.051 196.637,204.730 197.405,204.400 197.622 C 204.070 197.839,203.246 198.272,202.568 198.585 C 201.891 198.898,201.127 199.406,200.872 199.713 C 200.437 200.238,200.104 321.838,200.537 322.270 C 200.730 322.463,202.177 321.811,204.072 320.679 C 208.620 317.961,217.645 312.693,220.200 311.265 C 221.080 310.773,222.520 309.936,223.400 309.406 C 224.280 308.875,225.433 308.246,225.963 308.007 C 226.492 307.768,227.743 307.020,228.742 306.346 C 229.741 305.672,230.928 304.949,231.380 304.739 C 231.831 304.530,232.859 303.963,233.664 303.479 C 234.470 302.996,236.180 302.009,237.464 301.286 C 238.749 300.563,240.070 299.807,240.400 299.606 C 242.030 298.611,248.994 294.513,250.118 293.887 C 250.823 293.494,252.120 292.741,253.000 292.214 C 253.880 291.687,255.140 290.973,255.800 290.628 C 256.460 290.284,257.540 289.641,258.200 289.200 C 258.860 288.759,260.011 288.115,260.758 287.769 C 261.505 287.424,262.373 286.884,262.687 286.570 C 263.001 286.257,263.478 286.000,263.749 286.000 C 264.019 286.000,264.464 285.776,264.737 285.503 C 265.011 285.229,266.379 284.374,267.779 283.603 C 269.178 282.831,272.148 281.120,274.380 279.800 C 276.611 278.480,279.014 277.079,279.718 276.687 C 280.423 276.294,281.720 275.536,282.600 275.002 C 283.480 274.468,284.695 273.827,285.300 273.577 C 285.905 273.326,286.400 272.977,286.400 272.800 C 286.400 272.623,286.895 272.274,287.500 272.023 C 288.105 271.773,289.320 271.127,290.200 270.587 C 291.080 270.047,292.340 269.350,293.000 269.038 C 293.660 268.726,294.348 268.320,294.530 268.135 C 294.711 267.951,295.997 267.170,297.387 266.400 C 302.194 263.737,304.603 262.304,305.300 261.691 C 306.286 260.825,306.402 139.333,305.417 139.333 C 305.097 139.333,304.739 139.581,304.623 139.885 " stroke="none" fill="#ccdae4" fill-rule="evenodd"></path><path id="path5" d="M372.417 100.768 C 372.191 101.190,371.391 101.739,370.638 101.987 C 369.886 102.236,369.170 102.700,369.048 103.019 C 368.925 103.339,368.542 103.600,368.196 103.600 C 367.851 103.600,367.080 103.922,366.484 104.316 C 364.614 105.551,363.840 105.998,362.500 106.613 C 361.785 106.942,361.200 107.385,361.200 107.598 C 361.200 107.811,360.705 108.106,360.100 108.253 C 359.495 108.401,358.571 108.855,358.046 109.261 C 357.521 109.667,356.846 110.000,356.546 110.000 C 356.246 110.000,356.000 110.159,356.000 110.354 C 356.000 110.549,355.378 111.004,354.617 111.365 C 353.856 111.726,353.134 112.183,353.012 112.380 C 352.891 112.577,352.253 112.857,351.595 113.001 C 350.938 113.145,350.400 113.427,350.400 113.626 C 350.400 113.826,349.815 114.258,349.100 114.587 C 347.707 115.226,346.775 115.787,345.251 116.900 C 344.723 117.285,343.963 117.600,343.560 117.600 C 343.158 117.600,342.635 117.960,342.400 118.400 C 342.165 118.840,341.631 119.200,341.214 119.200 C 340.798 119.200,340.188 119.469,339.859 119.798 C 339.530 120.128,338.842 120.587,338.330 120.819 C 337.819 121.051,336.680 121.681,335.800 122.218 C 334.920 122.755,333.660 123.478,333.000 123.825 C 332.340 124.171,331.080 124.889,330.200 125.420 C 329.320 125.950,328.150 126.611,327.600 126.889 C 327.050 127.167,326.420 127.533,326.200 127.703 C 324.807 128.777,322.634 130.026,321.790 130.238 C 321.245 130.375,320.800 130.645,320.800 130.838 C 320.800 131.031,320.215 131.458,319.500 131.787 C 318.107 132.426,317.175 132.987,315.651 134.100 C 315.123 134.485,314.363 134.800,313.960 134.800 C 313.558 134.800,313.035 135.160,312.800 135.600 C 312.565 136.040,312.046 136.400,311.647 136.400 C 311.249 136.400,310.507 136.760,310.000 137.200 C 309.493 137.640,308.845 138.000,308.561 138.000 C 306.738 138.000,306.800 135.826,306.800 200.019 L 306.800 260.261 307.700 261.104 C 308.195 261.567,309.050 262.148,309.600 262.394 C 310.150 262.640,311.320 263.281,312.200 263.818 C 313.080 264.355,314.385 265.068,315.100 265.403 C 315.815 265.737,316.400 266.188,316.400 266.405 C 316.400 266.622,316.736 266.800,317.146 266.800 C 317.556 266.800,318.350 267.160,318.909 267.600 C 319.469 268.040,320.083 268.400,320.274 268.400 C 320.465 268.400,321.058 268.715,321.591 269.100 C 322.854 270.013,326.664 272.235,328.232 272.974 C 328.909 273.293,329.696 273.834,329.981 274.177 C 330.265 274.520,330.748 274.800,331.053 274.800 C 331.358 274.800,332.505 275.430,333.600 276.200 C 334.695 276.970,335.749 277.600,335.942 277.600 C 336.135 277.600,336.721 277.935,337.246 278.345 C 337.771 278.755,338.640 279.228,339.177 279.396 C 339.715 279.565,341.030 280.318,342.099 281.070 C 343.169 281.821,344.439 282.612,344.922 282.828 C 345.405 283.043,346.520 283.655,347.400 284.189 C 348.280 284.722,349.446 285.359,349.992 285.604 C 350.537 285.850,351.077 286.195,351.192 286.373 C 351.306 286.550,352.390 287.223,353.600 287.868 C 355.987 289.141,357.592 290.098,359.284 291.257 C 359.880 291.666,360.623 292.000,360.935 292.000 C 361.247 292.000,361.742 292.289,362.035 292.642 C 362.327 292.995,362.935 293.449,363.384 293.651 C 363.833 293.853,364.920 294.452,365.800 294.982 C 366.680 295.512,367.991 296.221,368.714 296.558 C 369.437 296.895,370.298 297.440,370.627 297.770 C 370.956 298.099,371.840 298.484,372.591 298.625 C 373.367 298.770,374.033 299.166,374.132 299.540 C 374.228 299.903,374.328 255.155,374.354 200.100 C 374.400 100.848,374.393 100.000,373.614 100.000 C 373.182 100.000,372.643 100.346,372.417 100.768 M370.684 303.200 C 370.569 303.640,370.638 304.000,370.837 304.000 C 371.037 304.000,371.200 303.820,371.200 303.600 C 371.200 303.380,371.481 303.200,371.824 303.200 C 372.167 303.200,372.336 303.020,372.200 302.800 C 371.782 302.124,370.905 302.356,370.684 303.200 M368.643 304.633 C 368.493 305.023,368.582 305.206,368.875 305.108 C 369.473 304.909,369.802 304.000,369.276 304.000 C 369.061 304.000,368.776 304.285,368.643 304.633 M360.000 309.200 C 360.000 310.107,360.415 310.225,361.120 309.520 C 361.825 308.815,361.707 308.400,360.800 308.400 C 360.267 308.400,360.000 308.667,360.000 309.200 M349.084 315.600 C 348.950 316.113,349.072 316.400,349.423 316.400 C 349.725 316.400,350.165 316.040,350.400 315.600 C 350.759 314.929,350.704 314.800,350.061 314.800 C 349.630 314.800,349.202 315.151,349.084 315.600 M346.654 317.402 C 346.515 317.765,346.656 318.000,347.013 318.000 C 347.660 318.000,347.807 317.375,347.242 317.026 C 347.045 316.904,346.781 317.074,346.654 317.402 M338.071 322.035 C 337.588 322.808,337.618 322.849,338.475 322.585 C 339.658 322.221,339.735 322.142,339.416 321.627 C 339.024 320.992,338.652 321.105,338.071 322.035 M330.400 326.200 C 330.400 326.530,330.561 326.800,330.757 326.800 C 330.954 326.800,331.218 326.530,331.345 326.200 C 331.485 325.835,331.345 325.600,330.987 325.600 C 330.664 325.600,330.400 325.870,330.400 326.200 M319.293 332.800 C 318.889 333.447,318.893 333.600,319.317 333.600 C 319.896 333.600,320.800 332.820,320.800 332.320 C 320.800 331.691,319.783 332.015,319.293 332.800 M317.385 333.975 C 317.512 334.182,317.298 334.536,316.908 334.763 C 316.519 334.990,316.389 335.181,316.620 335.188 C 317.110 335.202,318.000 334.385,318.000 333.920 C 318.000 333.744,317.809 333.600,317.576 333.600 C 317.343 333.600,317.257 333.769,317.385 333.975 M308.400 339.000 C 308.400 339.333,308.756 339.600,309.200 339.600 C 309.644 339.600,310.000 339.333,310.000 339.000 C 310.000 338.667,309.644 338.400,309.200 338.400 C 308.756 338.400,308.400 338.667,308.400 339.000 M306.379 340.622 C 305.851 341.184,305.688 341.541,306.018 341.414 C 306.539 341.215,307.834 339.600,307.473 339.600 C 307.400 339.600,306.907 340.060,306.379 340.622 M297.600 345.229 C 297.600 345.802,297.815 346.017,298.295 345.925 C 299.338 345.724,299.454 344.400,298.429 344.400 C 297.857 344.400,297.600 344.657,297.600 345.229 M289.474 350.037 C 289.264 350.840,289.287 350.845,290.028 350.175 C 290.946 349.343,290.979 349.200,290.247 349.200 C 289.942 349.200,289.595 349.577,289.474 350.037 M287.083 351.612 C 286.503 352.288,286.494 352.400,287.016 352.400 C 287.351 352.400,287.732 352.122,287.862 351.783 C 288.229 350.827,287.829 350.740,287.083 351.612 M284.800 352.904 C 284.800 353.255,284.485 353.624,284.100 353.724 C 283.444 353.896,283.445 353.910,284.113 353.954 C 284.836 354.001,285.506 352.973,285.049 352.516 C 284.912 352.379,284.800 352.553,284.800 352.904 M278.674 356.437 C 278.460 357.256,278.474 357.258,279.328 356.541 C 279.808 356.138,280.275 355.762,280.367 355.704 C 280.458 355.647,280.164 355.600,279.713 355.600 C 279.218 355.600,278.807 355.931,278.674 356.437 M276.084 357.815 C 275.652 358.306,275.700 358.400,276.384 358.400 C 276.843 358.400,277.200 358.137,277.200 357.800 C 277.200 357.049,276.755 357.055,276.084 357.815 M268.228 362.369 C 267.464 363.213,267.751 363.472,268.749 362.840 C 269.051 362.649,269.226 362.278,269.139 362.016 C 269.036 361.707,268.713 361.833,268.228 362.369 M257.569 368.100 C 257.268 369.085,257.362 369.513,257.839 369.330 C 258.477 369.085,258.608 368.000,258.000 368.000 C 257.780 368.000,257.586 368.045,257.569 368.100 M246.484 375.015 C 246.052 375.506,246.100 375.600,246.784 375.600 C 247.243 375.600,247.600 375.337,247.600 375.000 C 247.600 374.249,247.155 374.255,246.484 375.015 M238.267 379.067 C 237.668 379.666,237.973 380.520,238.600 380.000 C 238.930 379.726,239.200 379.344,239.200 379.151 C 239.200 378.737,238.647 378.687,238.267 379.067 M227.097 385.949 C 226.949 386.517,227.076 386.653,227.623 386.510 C 228.640 386.244,228.967 385.200,228.034 385.200 C 227.627 385.200,227.205 385.537,227.097 385.949 M224.623 387.833 C 223.974 388.307,223.954 388.400,224.500 388.400 C 224.859 388.400,225.271 388.208,225.416 387.973 C 225.840 387.287,225.461 387.220,224.623 387.833 M217.100 391.476 C 216.715 391.576,216.400 391.915,216.400 392.229 C 216.400 393.028,216.902 392.940,217.707 392.000 C 218.401 391.190,218.353 391.148,217.100 391.476 M206.135 398.174 C 206.256 398.490,206.140 398.836,205.878 398.943 C 205.615 399.049,205.715 399.151,206.100 399.168 C 206.544 399.188,206.800 398.907,206.800 398.400 C 206.800 397.960,206.601 397.600,206.357 397.600 C 206.114 397.600,206.014 397.858,206.135 398.174 " stroke="none" fill="#346cbc" fill-rule="evenodd"></path><path id="path6" d="M93.699 200.238 C 93.590 267.782,93.395 262.216,95.900 262.980 C 96.395 263.130,96.800 263.400,96.800 263.578 C 96.800 263.757,97.385 264.139,98.100 264.428 C 98.815 264.717,99.536 265.175,99.702 265.445 C 99.869 265.716,100.531 266.053,101.175 266.194 C 101.818 266.336,102.559 266.710,102.821 267.026 C 103.083 267.342,103.518 267.600,103.787 267.600 C 104.056 267.600,104.602 267.960,105.000 268.400 C 105.398 268.840,106.028 269.200,106.400 269.200 C 106.772 269.200,107.402 269.560,107.800 270.000 C 108.198 270.440,108.927 270.800,109.419 270.800 C 109.912 270.800,110.416 271.064,110.540 271.387 C 110.664 271.710,111.358 272.247,112.083 272.579 C 113.491 273.226,114.420 273.783,115.949 274.900 C 116.477 275.285,117.154 275.600,117.454 275.600 C 117.754 275.600,118.360 275.960,118.800 276.400 C 119.240 276.840,119.960 277.200,120.400 277.200 C 120.840 277.200,121.200 277.379,121.200 277.597 C 121.200 277.985,123.102 279.110,125.300 280.022 C 125.905 280.273,126.400 280.619,126.400 280.791 C 126.400 280.962,126.985 281.339,127.700 281.628 C 128.415 281.917,129.144 282.389,129.320 282.677 C 129.496 282.964,129.967 283.200,130.366 283.200 C 130.765 283.200,131.550 283.560,132.109 284.000 C 132.669 284.440,133.295 284.800,133.501 284.800 C 133.707 284.800,134.202 285.160,134.600 285.600 C 134.998 286.040,135.628 286.400,136.000 286.400 C 136.372 286.400,137.002 286.760,137.400 287.200 C 137.798 287.640,138.353 288.000,138.634 288.000 C 138.914 288.000,140.227 288.720,141.552 289.600 C 142.877 290.480,144.076 291.200,144.217 291.200 C 144.358 291.200,144.931 291.560,145.491 292.000 C 146.050 292.440,146.754 292.800,147.054 292.800 C 147.354 292.800,147.960 293.160,148.400 293.600 C 148.840 294.040,149.560 294.400,150.000 294.400 C 150.440 294.400,150.800 294.579,150.800 294.797 C 150.800 295.185,152.702 296.310,154.900 297.222 C 155.505 297.473,156.000 297.819,156.000 297.991 C 156.000 298.162,156.585 298.540,157.300 298.829 C 158.015 299.118,158.690 299.480,158.800 299.632 C 158.910 299.785,159.630 300.205,160.400 300.566 C 162.331 301.470,163.466 302.154,164.329 302.936 C 164.733 303.301,165.290 303.600,165.568 303.600 C 165.846 303.600,166.531 303.960,167.091 304.400 C 167.650 304.840,168.326 305.200,168.592 305.200 C 168.858 305.200,169.402 305.560,169.800 306.000 C 170.198 306.440,170.693 306.800,170.899 306.800 C 171.105 306.800,171.731 307.160,172.291 307.600 C 172.850 308.040,173.554 308.400,173.854 308.400 C 174.154 308.400,174.760 308.760,175.200 309.200 C 175.640 309.640,176.360 310.000,176.800 310.000 C 177.240 310.000,177.600 310.178,177.600 310.395 C 177.600 310.612,178.185 311.063,178.900 311.397 C 179.615 311.732,180.920 312.447,181.800 312.987 C 182.680 313.527,183.895 314.173,184.500 314.423 C 185.105 314.674,185.600 315.021,185.600 315.196 C 185.600 315.370,186.275 315.807,187.100 316.165 C 187.925 316.524,189.140 317.174,189.800 317.610 C 190.460 318.045,191.554 318.661,192.232 318.978 C 192.909 319.295,193.696 319.834,193.981 320.177 C 194.265 320.520,194.808 320.800,195.187 320.800 C 195.566 320.800,196.202 321.160,196.600 321.600 C 196.998 322.040,197.597 322.400,197.930 322.400 C 198.264 322.400,198.844 322.678,199.219 323.017 C 199.834 323.574,199.925 323.573,200.143 323.004 C 200.311 322.567,200.051 322.253,199.292 321.975 C 197.895 321.465,197.719 321.377,195.800 320.219 C 194.920 319.689,193.660 318.966,193.000 318.613 C 192.340 318.261,191.080 317.532,190.200 316.995 C 189.320 316.458,188.154 315.823,187.608 315.584 C 187.063 315.345,186.523 315.007,186.408 314.831 C 186.182 314.485,181.758 311.945,179.768 311.019 C 179.091 310.704,178.304 310.166,178.019 309.823 C 177.735 309.480,177.299 309.192,177.051 309.182 C 176.803 309.172,175.160 308.271,173.400 307.180 C 171.640 306.088,169.660 304.919,169.000 304.581 C 168.340 304.244,167.080 303.532,166.200 302.999 C 165.320 302.467,164.105 301.827,163.500 301.577 C 162.895 301.326,162.400 300.987,162.400 300.822 C 162.400 300.656,161.725 300.220,160.900 299.852 C 158.851 298.937,157.041 297.936,156.800 297.585 C 156.690 297.424,155.479 296.687,154.109 295.946 C 152.739 295.206,150.998 294.240,150.241 293.800 C 148.867 293.002,142.050 288.981,139.268 287.327 C 138.461 286.848,137.260 286.173,136.600 285.828 C 135.940 285.484,134.860 284.842,134.200 284.403 C 133.540 283.964,132.280 283.239,131.400 282.792 C 129.203 281.677,127.439 280.650,127.200 280.346 C 127.090 280.207,125.879 279.487,124.509 278.746 C 123.139 278.006,121.339 276.999,120.509 276.508 C 119.679 276.017,118.550 275.391,118.000 275.117 C 117.450 274.843,116.190 274.070,115.200 273.400 C 114.210 272.730,112.950 271.957,112.400 271.683 C 111.850 271.409,110.680 270.750,109.800 270.220 C 108.920 269.689,107.660 268.971,107.000 268.625 C 106.340 268.278,105.080 267.558,104.200 267.025 C 103.320 266.491,102.060 265.773,101.400 265.428 C 100.740 265.084,99.660 264.441,99.000 264.000 C 98.340 263.559,97.256 262.944,96.592 262.632 C 93.758 261.304,94.014 267.284,93.900 199.770 L 93.797 139.000 93.699 200.238 " stroke="none" fill="#e898ac" fill-rule="evenodd"></path><path id="path7" d="M198.000 78.195 C 197.450 78.516,196.460 79.066,195.800 79.417 C 195.140 79.768,193.880 80.491,193.000 81.025 C 192.120 81.558,190.860 82.278,190.200 82.625 C 189.540 82.971,188.280 83.689,187.400 84.219 C 186.520 84.749,185.215 85.490,184.500 85.866 C 183.785 86.241,183.200 86.695,183.200 86.874 C 183.200 87.053,183.017 87.200,182.794 87.200 C 182.425 87.200,180.449 88.286,176.464 90.679 C 175.659 91.163,174.577 91.751,174.060 91.985 C 173.542 92.219,172.192 92.996,171.060 93.710 C 169.927 94.425,168.640 95.236,168.200 95.513 C 167.760 95.790,166.860 96.295,166.200 96.636 C 165.540 96.976,164.280 97.691,163.400 98.225 C 162.520 98.758,161.260 99.478,160.600 99.825 C 159.940 100.171,158.748 100.848,157.950 101.327 C 154.608 103.339,148.148 107.095,145.860 108.356 C 144.507 109.102,143.310 109.822,143.200 109.956 C 142.932 110.283,140.914 111.438,139.242 112.223 C 138.495 112.573,137.627 113.116,137.313 113.430 C 136.999 113.743,136.545 114.000,136.303 114.000 C 136.061 114.000,135.579 114.253,135.231 114.562 C 134.884 114.871,133.468 115.726,132.083 116.462 C 128.743 118.238,127.727 118.821,125.670 120.139 C 124.718 120.749,123.638 121.360,123.270 121.497 C 122.603 121.745,121.757 122.265,119.316 123.926 C 118.610 124.407,117.853 124.800,117.634 124.800 C 117.297 124.800,115.286 125.997,113.781 127.094 C 112.944 127.704,110.967 128.781,109.500 129.427 C 108.675 129.790,108.000 130.230,108.000 130.404 C 108.000 130.579,107.505 130.926,106.900 131.177 C 106.295 131.427,105.080 132.067,104.200 132.599 C 103.320 133.132,102.060 133.854,101.400 134.205 C 98.082 135.968,94.566 138.207,94.210 138.784 C 93.808 139.435,95.043 139.271,95.600 138.600 C 95.874 138.270,96.322 138.000,96.595 138.000 C 96.868 138.000,97.550 137.640,98.109 137.200 C 98.669 136.760,99.373 136.400,99.674 136.400 C 99.976 136.400,100.530 136.040,100.907 135.600 C 101.284 135.160,101.914 134.800,102.307 134.800 C 102.700 134.800,103.330 134.440,103.707 134.000 C 104.084 133.560,104.651 133.200,104.968 133.200 C 105.284 133.200,105.787 132.975,106.086 132.700 C 106.741 132.096,108.532 131.035,110.300 130.202 C 111.015 129.865,111.600 129.412,111.600 129.195 C 111.600 128.978,111.960 128.800,112.400 128.800 C 112.840 128.800,113.560 128.440,114.000 128.000 C 114.440 127.560,115.070 127.200,115.400 127.200 C 115.730 127.200,116.360 126.840,116.800 126.400 C 117.240 125.960,117.797 125.600,118.037 125.600 C 118.277 125.600,118.931 125.240,119.491 124.800 C 120.050 124.360,120.726 124.000,120.992 124.000 C 121.258 124.000,121.802 123.640,122.200 123.200 C 122.598 122.760,123.228 122.400,123.600 122.400 C 123.972 122.400,124.602 122.040,125.000 121.600 C 125.398 121.160,125.958 120.800,126.244 120.800 C 126.729 120.800,129.152 119.358,130.309 118.382 C 130.588 118.146,131.353 117.765,132.009 117.537 C 132.664 117.309,133.200 116.979,133.200 116.804 C 133.200 116.630,133.637 116.377,134.172 116.243 C 134.707 116.109,135.383 115.760,135.675 115.468 C 136.230 114.913,137.695 114.060,139.900 113.009 C 140.615 112.668,141.200 112.212,141.200 111.995 C 141.200 111.778,141.536 111.600,141.946 111.600 C 142.356 111.600,143.121 111.280,143.646 110.889 C 144.171 110.499,145.095 109.928,145.700 109.622 C 146.305 109.315,146.800 108.915,146.800 108.732 C 146.800 108.550,147.132 108.400,147.539 108.400 C 147.945 108.400,148.693 108.040,149.200 107.600 C 149.707 107.160,150.367 106.800,150.665 106.800 C 150.964 106.800,151.516 106.440,151.893 106.000 C 152.270 105.560,152.870 105.200,153.227 105.200 C 153.584 105.200,154.202 104.840,154.600 104.400 C 154.998 103.960,155.645 103.600,156.038 103.600 C 156.431 103.600,156.875 103.402,157.025 103.159 C 157.175 102.917,157.906 102.464,158.649 102.154 C 159.392 101.843,160.000 101.426,160.000 101.226 C 160.000 101.026,160.630 100.654,161.400 100.400 C 162.170 100.146,162.800 99.808,162.800 99.649 C 162.800 99.491,163.430 99.133,164.200 98.854 C 164.970 98.576,165.600 98.197,165.600 98.013 C 165.600 97.829,166.095 97.473,166.700 97.222 C 168.898 96.310,170.800 95.185,170.800 94.797 C 170.800 94.579,171.136 94.400,171.546 94.400 C 171.956 94.400,172.723 94.085,173.249 93.700 C 174.354 92.891,175.696 92.102,177.400 91.259 C 178.060 90.932,178.744 90.425,178.920 90.132 C 179.096 89.840,179.584 89.600,180.004 89.600 C 180.425 89.600,181.091 89.262,181.484 88.850 C 181.878 88.437,182.642 87.963,183.181 87.797 C 183.721 87.631,184.409 87.248,184.710 86.947 C 185.011 86.646,185.486 86.400,185.767 86.400 C 186.047 86.400,186.602 86.040,187.000 85.600 C 187.398 85.160,187.939 84.800,188.201 84.800 C 188.463 84.800,189.093 84.440,189.600 84.000 C 190.107 83.560,190.846 83.200,191.241 83.200 C 191.637 83.200,192.104 82.964,192.280 82.677 C 192.456 82.389,193.185 81.917,193.900 81.628 C 194.615 81.339,195.200 80.962,195.200 80.791 C 195.200 80.619,195.695 80.273,196.300 80.023 C 196.905 79.773,197.893 79.297,198.494 78.965 C 199.623 78.343,202.400 78.538,202.400 79.239 C 202.400 79.432,202.985 79.868,203.700 80.209 C 205.905 81.260,207.370 82.113,207.925 82.668 C 208.218 82.961,208.687 83.200,208.967 83.200 C 209.248 83.200,209.893 83.560,210.400 84.000 C 210.907 84.440,211.537 84.800,211.799 84.800 C 212.061 84.800,212.602 85.160,213.000 85.600 C 213.398 86.040,213.973 86.400,214.278 86.400 C 214.583 86.400,215.320 86.722,215.916 87.116 C 217.777 88.346,218.559 88.797,219.873 89.402 C 220.573 89.724,221.244 90.147,221.364 90.342 C 221.484 90.537,222.622 91.213,223.891 91.844 C 225.161 92.475,226.333 93.198,226.495 93.451 C 226.657 93.704,227.247 94.025,227.805 94.166 C 228.363 94.306,229.176 94.776,229.610 95.210 C 230.045 95.645,230.760 96.000,231.200 96.000 C 231.640 96.000,232.000 96.189,232.000 96.421 C 232.000 96.652,232.540 97.030,233.200 97.260 C 233.860 97.490,234.400 97.827,234.400 98.008 C 234.400 98.190,235.030 98.546,235.800 98.800 C 236.570 99.054,237.200 99.414,237.200 99.600 C 237.200 99.786,237.830 100.146,238.600 100.400 C 239.370 100.654,240.000 101.010,240.000 101.192 C 240.000 101.373,240.495 101.730,241.100 101.984 C 242.442 102.547,244.264 103.570,245.589 104.503 C 246.133 104.887,246.855 105.200,247.193 105.200 C 247.531 105.200,248.032 105.560,248.307 106.000 C 248.582 106.440,249.137 106.800,249.541 106.800 C 249.945 106.800,250.602 107.160,251.000 107.600 C 251.398 108.040,251.983 108.400,252.299 108.400 C 252.615 108.400,253.331 108.760,253.891 109.200 C 254.450 109.640,255.134 110.000,255.411 110.000 C 255.688 110.000,256.012 110.253,256.130 110.562 C 256.249 110.872,256.883 111.243,257.540 111.387 C 258.196 111.531,258.826 111.891,258.940 112.187 C 259.053 112.483,259.710 112.849,260.400 113.000 C 261.090 113.151,261.751 113.528,261.870 113.838 C 261.988 114.147,262.309 114.400,262.582 114.400 C 262.854 114.400,263.493 114.760,264.000 115.200 C 264.507 115.640,265.152 116.000,265.433 116.000 C 265.713 116.000,266.199 116.257,266.513 116.570 C 266.827 116.884,267.695 117.424,268.442 117.769 C 269.189 118.115,270.340 118.757,271.000 119.195 C 271.660 119.633,272.650 120.211,273.200 120.480 C 273.750 120.748,274.629 121.290,275.154 121.684 C 275.679 122.078,276.444 122.400,276.854 122.400 C 277.264 122.400,277.600 122.579,277.600 122.797 C 277.600 123.154,278.137 123.487,281.600 125.274 C 282.150 125.558,282.838 126.017,283.128 126.295 C 283.418 126.572,284.080 126.905,284.599 127.035 C 285.118 127.166,285.633 127.509,285.744 127.798 C 285.855 128.088,286.498 128.446,287.173 128.594 C 287.848 128.742,288.400 129.027,288.400 129.226 C 288.400 129.426,288.985 129.868,289.700 130.209 C 291.905 131.260,293.370 132.113,293.925 132.668 C 294.218 132.961,294.782 133.200,295.180 133.200 C 295.577 133.200,296.135 133.480,296.419 133.823 C 296.704 134.166,297.491 134.705,298.168 135.022 C 298.846 135.339,299.940 135.957,300.600 136.395 C 301.260 136.833,302.250 137.410,302.800 137.678 C 303.350 137.945,304.116 138.481,304.503 138.868 C 304.889 139.256,305.482 139.467,305.820 139.337 C 306.766 138.974,305.729 138.035,302.623 136.442 C 301.180 135.702,300.000 134.958,300.000 134.787 C 300.000 134.617,299.485 134.299,298.856 134.079 C 298.227 133.860,296.922 133.170,295.956 132.545 C 294.990 131.920,293.750 131.176,293.200 130.890 C 292.650 130.604,291.480 129.929,290.600 129.388 C 289.720 128.848,288.460 128.129,287.800 127.790 C 287.140 127.452,286.060 126.820,285.400 126.386 C 284.740 125.953,283.660 125.316,283.000 124.972 C 282.340 124.627,281.138 123.952,280.329 123.473 C 276.231 121.041,271.583 118.400,271.403 118.400 C 271.291 118.400,270.840 118.040,270.400 117.600 C 269.960 117.160,269.328 116.800,268.996 116.800 C 268.664 116.800,267.539 116.211,266.496 115.491 C 265.453 114.771,264.150 113.957,263.600 113.683 C 263.050 113.409,261.880 112.744,261.000 112.206 C 260.120 111.668,258.860 110.946,258.200 110.601 C 257.540 110.257,256.460 109.625,255.800 109.197 C 255.140 108.770,254.022 108.100,253.316 107.710 C 250.869 106.358,244.597 102.772,244.000 102.384 C 243.670 102.170,242.950 101.774,242.400 101.506 C 241.850 101.237,241.256 100.788,241.080 100.508 C 240.904 100.229,240.566 100.000,240.329 100.000 C 239.941 100.000,238.756 99.344,234.056 96.527 C 233.255 96.048,232.060 95.366,231.400 95.013 C 230.740 94.661,229.480 93.930,228.600 93.391 C 227.720 92.851,226.505 92.210,225.900 91.966 C 225.295 91.721,224.800 91.373,224.800 91.192 C 224.800 91.010,224.170 90.654,223.400 90.400 C 222.630 90.146,222.000 89.809,222.000 89.651 C 222.000 89.493,220.875 88.765,219.500 88.034 C 218.125 87.302,216.280 86.279,215.400 85.760 C 214.520 85.241,213.350 84.589,212.800 84.312 C 211.810 83.813,209.372 82.298,208.600 81.703 C 208.380 81.533,207.750 81.167,207.200 80.889 C 206.650 80.611,205.480 79.947,204.600 79.413 C 201.307 77.413,199.813 77.137,198.000 78.195 " stroke="none" fill="#dae2ac" fill-rule="evenodd"></path><path id="path8" d="M94.099 199.830 L 94.000 260.661 94.900 261.454 C 95.395 261.890,96.250 262.464,96.800 262.728 C 97.350 262.992,98.340 263.567,99.000 264.005 C 99.660 264.443,100.740 265.084,101.400 265.428 C 102.060 265.773,103.320 266.491,104.200 267.025 C 105.080 267.558,106.340 268.278,107.000 268.625 C 107.660 268.971,108.920 269.689,109.800 270.220 C 110.680 270.750,111.850 271.409,112.400 271.683 C 112.950 271.957,114.210 272.730,115.200 273.400 C 116.190 274.070,117.450 274.843,118.000 275.117 C 118.550 275.391,119.720 276.043,120.600 276.564 C 123.660 278.377,125.239 279.117,125.089 278.666 C 125.005 278.416,124.366 278.048,123.669 277.848 C 122.971 277.648,122.400 277.333,122.400 277.148 C 122.400 276.962,121.815 276.537,121.100 276.203 C 120.385 275.868,119.080 275.153,118.200 274.613 C 117.320 274.073,116.105 273.427,115.500 273.177 C 114.895 272.926,114.400 272.587,114.400 272.422 C 114.400 272.256,113.725 271.825,112.900 271.463 C 112.075 271.101,110.680 270.363,109.800 269.823 C 108.920 269.283,107.840 268.643,107.400 268.400 C 106.960 268.157,105.880 267.519,105.000 266.982 C 104.120 266.445,102.827 265.737,102.127 265.409 C 101.427 265.081,100.749 264.641,100.620 264.433 C 100.491 264.224,99.363 263.547,98.113 262.927 C 96.862 262.307,95.516 261.486,95.121 261.101 C 94.437 260.436,94.398 257.499,94.300 199.701 L 94.197 139.000 94.099 199.830 M126.200 279.678 C 126.640 279.927,127.090 280.237,127.200 280.366 C 127.449 280.657,129.293 281.723,131.400 282.792 C 132.280 283.239,133.540 283.964,134.200 284.403 C 134.860 284.842,135.940 285.484,136.600 285.828 C 137.260 286.173,138.461 286.848,139.268 287.327 C 142.050 288.981,148.867 293.002,150.241 293.800 C 150.998 294.240,152.739 295.206,154.109 295.946 C 155.479 296.687,156.690 297.424,156.800 297.585 C 157.041 297.936,158.851 298.937,160.900 299.852 C 161.725 300.220,162.400 300.656,162.400 300.822 C 162.400 300.987,162.895 301.326,163.500 301.577 C 164.105 301.827,165.320 302.467,166.200 302.999 C 167.080 303.532,168.340 304.244,169.000 304.581 C 169.660 304.919,171.640 306.088,173.400 307.180 C 175.160 308.271,176.803 309.172,177.051 309.182 C 177.299 309.192,177.735 309.480,178.019 309.823 C 178.304 310.166,179.091 310.704,179.768 311.019 C 181.858 311.992,186.132 314.475,186.709 315.052 C 187.011 315.354,187.492 315.600,187.780 315.600 C 188.067 315.600,188.526 315.870,188.800 316.200 C 189.074 316.530,189.467 316.800,189.673 316.800 C 190.357 316.800,189.565 315.999,188.073 315.183 C 187.263 314.740,186.060 314.025,185.400 313.595 C 184.072 312.728,182.527 312.000,182.017 312.000 C 181.835 312.000,181.588 311.747,181.470 311.438 C 181.351 311.128,180.702 310.754,180.027 310.606 C 179.352 310.458,178.800 310.172,178.800 309.971 C 178.800 309.611,176.837 308.465,174.700 307.578 C 174.095 307.327,173.600 306.973,173.600 306.792 C 173.600 306.610,172.986 306.259,172.235 306.012 C 171.485 305.764,170.777 305.317,170.662 305.018 C 170.548 304.720,169.904 304.355,169.232 304.207 C 168.559 304.059,167.900 303.761,167.766 303.545 C 167.632 303.328,167.135 302.972,166.661 302.755 C 166.188 302.537,165.080 301.919,164.200 301.382 C 163.320 300.845,162.060 300.128,161.400 299.788 C 160.740 299.448,159.390 298.648,158.400 298.010 C 157.410 297.372,155.610 296.344,154.400 295.725 C 153.190 295.106,152.064 294.389,151.898 294.131 C 151.731 293.873,151.056 293.544,150.398 293.399 C 149.739 293.255,149.200 292.973,149.200 292.774 C 149.200 292.574,148.615 292.132,147.900 291.791 C 145.695 290.740,144.230 289.887,143.675 289.332 C 143.382 289.039,142.899 288.800,142.600 288.800 C 142.301 288.800,141.801 288.543,141.487 288.230 C 141.173 287.916,140.305 287.376,139.558 287.031 C 138.811 286.685,137.660 286.041,137.000 285.600 C 136.340 285.159,135.260 284.516,134.600 284.172 C 133.940 283.827,132.680 283.114,131.800 282.587 C 130.920 282.061,129.537 281.266,128.727 280.821 C 127.917 280.376,127.141 279.829,127.004 279.606 C 126.866 279.383,126.448 279.205,126.076 279.212 C 125.510 279.222,125.531 279.298,126.200 279.678 M191.299 317.592 C 191.853 318.028,192.732 318.580,193.253 318.820 C 194.570 319.426,196.691 320.617,197.295 321.089 C 198.057 321.685,200.466 322.430,200.190 321.984 C 200.060 321.773,199.795 321.600,199.602 321.600 C 199.066 321.600,197.532 320.876,196.200 319.993 C 195.540 319.556,194.446 318.939,193.768 318.622 C 193.091 318.305,192.304 317.766,192.019 317.423 C 191.735 317.080,191.230 316.800,190.897 316.800 C 190.492 316.800,190.626 317.062,191.299 317.592 " stroke="none" fill="#ecc4cc" fill-rule="evenodd"></path></g></svg>